<svg xmlns="http://www.w3.org/2000/svg" xmlns:xlink="http://www.w3.org/1999/xlink" width="40" height="40" viewBox="0 0 40 40">
  <defs>
    <clipPath id="clip-SchoolDay">
      <rect width="40" height="40"/>
    </clipPath>
  </defs>
  <g id="SchoolDay" clip-path="url(#clip-SchoolDay)">
    <g id="Component_18_4" data-name="Component 18 – 4" transform="translate(0)">
      <path id="Path_35" data-name="Path 35" d="M78.638,1741.135a.852.852,0,0,0,.706-.356.9.9,0,0,0,.166-.677.835.835,0,0,0-.345-.549l-7.319-5.49c-.1-.167-.411-.606-.822-.606a.89.89,0,0,0-.879.879v12.678a.879.879,0,1,0,1.759,0v-10.79l6.218,4.743a.94.94,0,0,0,.517.167" transform="translate(-51.024 -1714.524)" fill="#17382e"/>
      <path id="Path_36" data-name="Path 36" d="M71.077,1746.575A1.222,1.222,0,1,0,72.3,1747.8a1.223,1.223,0,0,0-1.221-1.222" transform="translate(-51.079 -1712.055)" fill="#17382e"/>
      <path id="Path_37" data-name="Path 37" d="M82.836,1726.751a1.185,1.185,0,0,0-.926.124,1.22,1.22,0,1,0,.926-.124" transform="translate(-48.925 -1715.794)" fill="#17382e"/>
      <path id="Path_38" data-name="Path 38" d="M71.077,1722.523a1.222,1.222,0,1,0-1.221-1.221,1.223,1.223,0,0,0,1.221,1.221" transform="translate(-51.079 -1717.042)" fill="#17382e"/>
      <path id="Path_39" data-name="Path 39" d="M84.326,1735.771a1.222,1.222,0,1,0-1.221-1.222,1.223,1.223,0,0,0,1.221,1.222" transform="translate(-48.585 -1714.549)" fill="#17382e"/>
      <path id="Path_40" data-name="Path 40" d="M87.216,1750.117a18.428,18.428,0,1,1,1.439-1.709l1.275,1.275a20.033,20.033,0,0,0-1.721-26.315l0,0a20.068,20.068,0,0,0-28.309,0,19.739,19.739,0,0,0-5.845,14.158,20.018,20.018,0,0,0,34.155,14.155c.1-.095.177-.2.271-.3Z" transform="translate(-54.053 -1717.523)" fill="#17382e"/>
      <path id="Path_41" data-name="Path 41" d="M83.718,1740.863a1.221,1.221,0,0,0-2.237-.3,1.221,1.221,0,0,0,.447,1.668,1.2,1.2,0,0,0,.607.164,1.226,1.226,0,0,0,1.061-.611,1.212,1.212,0,0,0,.122-.926" transform="translate(-48.922 -1713.301)" fill="#17382e"/>
      <path id="Path_42" data-name="Path 42" d="M77.7,1747.214a1.2,1.2,0,0,0,.608-.164,1.219,1.219,0,1,0-.608.164" transform="translate(-49.833 -1712.395)" fill="#17382e"/>
      <path id="Path_43" data-name="Path 43" d="M59.614,1729.142a1.221,1.221,0,0,0,.614-2.278,1.22,1.22,0,0,0-1.668.446,1.223,1.223,0,0,0,.446,1.668,1.206,1.206,0,0,0,.608.164" transform="translate(-53.236 -1715.796)" fill="#17382e"/>
      <path id="Path_44" data-name="Path 44" d="M57.829,1733.327a1.222,1.222,0,1,0,1.221,1.221,1.223,1.223,0,0,0-1.221-1.221" transform="translate(-53.572 -1714.549)" fill="#17382e"/>
      <path id="Path_45" data-name="Path 45" d="M78.886,1722.773a1.22,1.22,0,1,0-1.182,1.539,1.284,1.284,0,0,0,.318-.042,1.222,1.222,0,0,0,.864-1.5" transform="translate(-49.831 -1716.706)" fill="#17382e"/>
      <path id="Path_46" data-name="Path 46" d="M59.318,1742.346a1.246,1.246,0,0,0,.317.042,1.222,1.222,0,1,0-.317-.042" transform="translate(-53.233 -1713.303)" fill="#17382e"/>
      <path id="Path_47" data-name="Path 47" d="M65.517,1722.493a1.219,1.219,0,1,0,.124.927,1.215,1.215,0,0,0-.124-.927" transform="translate(-52.324 -1716.703)" fill="#17382e"/>
      <path id="Path_48" data-name="Path 48" d="M65.06,1744.952a1.221,1.221,0,0,0-1.221,2.115,1.2,1.2,0,0,0,.607.164,1.221,1.221,0,0,0,.614-2.279" transform="translate(-52.326 -1712.392)" fill="#17382e"/>
    </g>
  </g>
</svg>
