<svg xmlns="http://www.w3.org/2000/svg" xmlns:xlink="http://www.w3.org/1999/xlink" width="40" height="40" viewBox="0 0 40 40">
  <defs>
    <clipPath id="clip-Device">
      <rect width="40" height="40"/>
    </clipPath>
  </defs>
  <g id="Device" clip-path="url(#clip-Device)">
    <g id="Component_17_4" data-name="Component 17 – 4" transform="translate(3)">
      <path id="Path_28" data-name="Path 28" d="M83.632,1639.439H58.543a4.091,4.091,0,0,0-4.117,4.054v31.891a4.091,4.091,0,0,0,4.117,4.054H69.1v-1.783H58.543a2.3,2.3,0,0,1-2.325-2.271v-31.891a2.3,2.3,0,0,1,2.325-2.271H83.632a2.251,2.251,0,0,1,2.28,2.271v31.891a2.251,2.251,0,0,1-2.28,2.271H73.1v1.783H83.632a4.02,4.02,0,0,0,4.072-4.054v-31.891a4.02,4.02,0,0,0-4.072-4.054" transform="translate(-54.426 -1639.439)" fill="#17382e"/>
      <path id="Path_29" data-name="Path 29" d="M81.854,1671.815H60.321v-26.808H81.854Zm1.793.892v-28.592a.894.894,0,0,0-.9-.891H59.425a.894.894,0,0,0-.9.891v28.592a.9.9,0,0,0,.9.892H82.751a.9.9,0,0,0,.9-.892" transform="translate(-54.426 -1639.455)" fill="#17382e"/>
    </g>
  </g>
</svg>
