<svg xmlns="http://www.w3.org/2000/svg" xmlns:xlink="http://www.w3.org/1999/xlink" width="171" height="186" viewBox="0 0 171 186">
  <defs>
    <clipPath id="clip-Banner_Unit">
      <rect width="171" height="186"/>
    </clipPath>
  </defs>
  <g id="Banner_Unit" data-name="Banner Unit" clip-path="url(#clip-Banner_Unit)">
    <g id="Group_1186" data-name="Group 1186" transform="translate(-2)">
      <g id="Group_1185" data-name="Group 1185" transform="translate(-51 -103.668)">
        <text id="Exclusive_Offer_for_Majid_Al_Futtaim_Employees" data-name="Exclusive Offer for
Majid Al Futtaim Employees" transform="translate(51 256.235)" fill="#fff" font-size="14" font-family="Calibri"><tspan x="35.905" y="13">Exclusive Offer for</tspan><tspan x="7.881" y="28.6">Majid Al Futtaim Employees</tspan></text>
        <g id="Group_61" data-name="Group 61" transform="translate(78 103.668)">
          <circle id="Ellipse_3" data-name="Ellipse 3" cx="60.93" cy="60.93" r="60.93" transform="translate(0 0)" fill="#cb3338"/>
          <g id="Exclusive_Offer_-_30_tuition_fee_concession_and_extended_school_day_" data-name="Exclusive Offer - 30 tuition fee concession and extended school day " style="isolation: isolate">
            <g id="Group_63" data-name="Group 63" style="isolation: isolate">
              <path id="Path_155" data-name="Path 155" d="M40.09,26.84a2.92,2.92,0,0,1,0,.33,1,1,0,0,1,0,.22.36.36,0,0,1-.08.12.28.28,0,0,1-.12,0H35.38a.56.56,0,0,1-.38-.14.55.55,0,0,1-.15-.43V19.27a.57.57,0,0,1,.15-.44.55.55,0,0,1,.38-.13H39.8a.17.17,0,0,1,.1,0,.38.38,0,0,1,.09.12,1,1,0,0,1,0,.22,3,3,0,0,1,0,.34,2.92,2.92,0,0,1,0,.33A.81.81,0,0,1,40,20a.144.144,0,0,1-.09.12.13.13,0,0,1-.1,0H36.64v2.16h2.67a.15.15,0,0,1,.11,0,.2.2,0,0,1,.09.11.93.93,0,0,1,.05.21,2.73,2.73,0,0,1,0,.66.83.83,0,0,1-.05.2.19.19,0,0,1-.09.12.2.2,0,0,1-.11,0H36.64v2.5h3.18a.27.27,0,0,1,.12,0,.36.36,0,0,1,.08.12,1,1,0,0,1,0,.22,2.919,2.919,0,0,1,.07.42Z" transform="translate(-1.22 -0.47)" fill="#fff"/>
              <path id="Path_156" data-name="Path 156" d="M47.22,27.19a.41.41,0,0,1,.05.19c0,.05,0,.09-.1.12a.64.64,0,0,1-.29.07H45.86a1.68,1.68,0,0,1-.3,0,.5.5,0,0,1-.15-.08.28.28,0,0,1-.08-.11l-1.13-2.2-1.13,2.17a.41.41,0,0,1-.07.11l-.15.08a1.55,1.55,0,0,1-.28,0h-.94a.51.51,0,0,1-.26-.07.15.15,0,0,1-.09-.12.45.45,0,0,1,.06-.19l1.69-3-1.56-2.82a.48.48,0,0,1-.06-.21.12.12,0,0,1,.08-.13,1.11,1.11,0,0,1,.29-.07h1.29a.35.35,0,0,1,.15.07.44.44,0,0,1,.08.11l1.09,2,1.08-2a.15.15,0,0,1,.06-.09.32.32,0,0,1,.13-.07.75.75,0,0,1,.24,0h.91a.55.55,0,0,1,.26.06.14.14,0,0,1,.07.13.49.49,0,0,1-.08.22l-1.51,2.77Z" transform="translate(-1.22 -0.47)" fill="#fff"/>
              <path id="Path_157" data-name="Path 157" d="M53,26.34a2.631,2.631,0,0,1,0,.3v.2a.47.47,0,0,1,0,.14.54.54,0,0,1-.11.12,1.06,1.06,0,0,1-.28.2,3.18,3.18,0,0,1-.45.2,3,3,0,0,1-.55.14,3.08,3.08,0,0,1-.61.06,3.48,3.48,0,0,1-1.25-.22,2.38,2.38,0,0,1-.91-.65,2.81,2.81,0,0,1-.56-1A5,5,0,0,1,48,24.38a4.94,4.94,0,0,1,.22-1.58,3.24,3.24,0,0,1,.64-1.11,2.76,2.76,0,0,1,1-.65,3.53,3.53,0,0,1,1.23-.21,3.1,3.1,0,0,1,.54.05,3.17,3.17,0,0,1,.49.13,2.63,2.63,0,0,1,.41.19,1.05,1.05,0,0,1,.26.17l.11.13a.4.4,0,0,1,0,.13v.2a2.53,2.53,0,0,1,0,.29,1.45,1.45,0,0,1-.07.56.165.165,0,0,1-.17.16.45.45,0,0,1-.25-.09l-.31-.22-.42-.21a1.74,1.74,0,0,0-.59-.09,1.18,1.18,0,0,0-1,.51,2.75,2.75,0,0,0-.35,1.52,3.81,3.81,0,0,0,.09.87,1.68,1.68,0,0,0,.26.62,1.07,1.07,0,0,0,.44.38,1.31,1.31,0,0,0,.61.13,1.59,1.59,0,0,0,.61-.1,3.13,3.13,0,0,0,.45-.24l.32-.24a.38.38,0,0,1,.22-.1.15.15,0,0,1,.1,0,.26.26,0,0,1,.07.13A1.29,1.29,0,0,1,53,26q.008.17,0,.34Z" transform="translate(-1.22 -0.47)" fill="#fff"/>
              <path id="Path_158" data-name="Path 158" d="M56.31,27.31a.16.16,0,0,1,0,.12.21.21,0,0,1-.14.09,1.2,1.2,0,0,1-.26.05h-.83a1.46,1.46,0,0,1-.27-.05.28.28,0,0,1-.14-.09.21.21,0,0,1,0-.12v-9a.22.22,0,0,1,.18-.21.9.9,0,0,1,.27-.06h.83a.77.77,0,0,1,.26.06.21.21,0,0,1,.14.09.19.19,0,0,1,0,.12Z" transform="translate(-1.22 -0.47)" fill="#fff"/>
              <path id="Path_159" data-name="Path 159" d="M64.16,27.31a.21.21,0,0,1,0,.12.19.19,0,0,1-.12.09,1,1,0,0,1-.22.05H63.1a1,1,0,0,1-.23-.05.2.2,0,0,1-.11-.09.21.21,0,0,1,0-.12v-.7a3.91,3.91,0,0,1-1,.82,2.34,2.34,0,0,1-1.09.27,2.49,2.49,0,0,1-1-.2,1.83,1.83,0,0,1-.69-.56,2.11,2.11,0,0,1-.38-.83A4.8,4.8,0,0,1,58.35,25V21.22a.21.21,0,0,1,0-.12.28.28,0,0,1,.14-.09,1.46,1.46,0,0,1,.27-.05h.83a1.2,1.2,0,0,1,.26.05.24.24,0,0,1,.14.09.16.16,0,0,1,0,.12v3.44a3.36,3.36,0,0,0,.06.73,1.62,1.62,0,0,0,.19.44,1,1,0,0,0,.32.28,1.08,1.08,0,0,0,.46.1,1.12,1.12,0,0,0,.66-.24,4.18,4.18,0,0,0,.71-.7V21.22a.21.21,0,0,1,0-.12.24.24,0,0,1,.14-.09,1.33,1.33,0,0,1,.26-.05h.84A1.33,1.33,0,0,1,64,21a.22.22,0,0,1,.13.09.16.16,0,0,1,0,.12Z" transform="translate(-1.22 -0.47)" fill="#fff"/>
              <path id="Path_160" data-name="Path 160" d="M70.54,25.59a2.08,2.08,0,0,1-.2.92,1.84,1.84,0,0,1-.55.66,2.51,2.51,0,0,1-.84.4,3.87,3.87,0,0,1-1,.13,3.36,3.36,0,0,1-.65-.05,3.57,3.57,0,0,1-.56-.13,2.06,2.06,0,0,1-.41-.16,1.12,1.12,0,0,1-.24-.15.55.55,0,0,1-.12-.23,2.31,2.31,0,0,1,0-.45,2.58,2.58,0,0,1,0-.32.49.49,0,0,1,0-.19.19.19,0,0,1,.06-.1h.11a.59.59,0,0,1,.22.08l.37.19a3.51,3.51,0,0,0,.5.19,2.29,2.29,0,0,0,.66.09,1.34,1.34,0,0,0,.42-.05,1,1,0,0,0,.31-.13.55.55,0,0,0,.2-.23.62.62,0,0,0,.07-.31.51.51,0,0,0-.12-.35,1.14,1.14,0,0,0-.34-.26l-.47-.21q-.27-.09-.54-.21a4.49,4.49,0,0,1-.54-.26,2.48,2.48,0,0,1-.47-.37,1.93,1.93,0,0,1-.34-.53,2,2,0,0,1-.12-.74,1.77,1.77,0,0,1,.17-.8,1.66,1.66,0,0,1,.49-.63,2.39,2.39,0,0,1,.78-.4,3.36,3.36,0,0,1,1-.14,3.31,3.31,0,0,1,.55,0,3,3,0,0,1,.49.1,3.07,3.07,0,0,1,.37.13,1.27,1.27,0,0,1,.22.13.28.28,0,0,1,.09.1.34.34,0,0,1,0,.12.9.9,0,0,1,0,.18,1.841,1.841,0,0,1,0,.26,2.111,2.111,0,0,1,0,.3.5.5,0,0,1,0,.19l-.06.09a.16.16,0,0,1-.1,0,.4.4,0,0,1-.19-.07l-.33-.15a3.331,3.331,0,0,0-.45-.16A2.49,2.49,0,0,0,68.4,22a1.5,1.5,0,0,0-.4.05.78.78,0,0,0-.29.14.65.65,0,0,0-.16.21.53.53,0,0,0,0,.25.52.52,0,0,0,.13.36,1.15,1.15,0,0,0,.34.25l.48.21.55.2q.27.12.54.27a2.18,2.18,0,0,1,.49.37,1.74,1.74,0,0,1,.34.52A1.93,1.93,0,0,1,70.54,25.59Z" transform="translate(-1.22 -0.47)" fill="#fff"/>
              <path id="Path_161" data-name="Path 161" d="M74,19.15a1,1,0,0,1-.21.72,1.17,1.17,0,0,1-.79.2,1.21,1.21,0,0,1-.78-.19,1,1,0,0,1-.2-.69,1,1,0,0,1,.21-.73,1.641,1.641,0,0,1,1.57,0A1,1,0,0,1,74,19.15Zm-.13,8.16a.16.16,0,0,1,0,.12.24.24,0,0,1-.14.09,1.33,1.33,0,0,1-.26.05h-.84a1.33,1.33,0,0,1-.26-.05.24.24,0,0,1-.14-.09.16.16,0,0,1,0-.12V21.23a.16.16,0,0,1,0-.12.42.42,0,0,1,.14-.09l.26-.06h.84l.26.06a.42.42,0,0,1,.14.09.16.16,0,0,1,0,.12Z" transform="translate(-1.22 -0.47)" fill="#fff"/>
              <path id="Path_162" data-name="Path 162" d="M81.58,21.21v.19a.689.689,0,0,1,0,.13.313.313,0,0,1-.05.17L79.7,27.22a.36.36,0,0,1-.28.3,1.57,1.57,0,0,1-.37.05H77.86a1.49,1.49,0,0,1-.36-.06.4.4,0,0,1-.18-.11.77.77,0,0,1-.1-.18L75.35,21.7a.374.374,0,0,0-.06-.25.64.64,0,0,1,0-.15v-.09a.21.21,0,0,1,0-.12.42.42,0,0,1,.14-.09.83.83,0,0,1,.26,0h.87a1.19,1.19,0,0,1,.27.05.21.21,0,0,1,.14.09.37.37,0,0,1,.07.14l1.39,4.47v0l1.37-4.47a.26.26,0,0,1,.06-.14.28.28,0,0,1,.14-.09,1.33,1.33,0,0,1,.26-.05h.83a.76.76,0,0,1,.25,0,.48.48,0,0,1,.13.09.21.21,0,0,1,.11.12Z" transform="translate(-1.22 -0.47)" fill="#fff"/>
              <path id="Path_163" data-name="Path 163" d="M88.44,24.09a.62.62,0,0,1-.14.46.49.49,0,0,1-.38.15H84.21a2.6,2.6,0,0,0,.09.71,1.41,1.41,0,0,0,.29.54,1.35,1.35,0,0,0,.52.34,2.18,2.18,0,0,0,.76.11,4.74,4.74,0,0,0,.8-.06,5.75,5.75,0,0,0,.59-.14l.41-.15a.83.83,0,0,1,.27-.06.16.16,0,0,1,.1,0,.22.22,0,0,1,.07.09.61.61,0,0,1,0,.17v.54a.9.9,0,0,1,0,.18.5.5,0,0,1,0,.13.61.61,0,0,1-.07.1,1,1,0,0,1-.25.13,4.271,4.271,0,0,1-.5.16,6.292,6.292,0,0,0-.71.14,7.3,7.3,0,0,1-.84.05,4.7,4.7,0,0,1-1.43-.2,2.62,2.62,0,0,1-1-.62,2.58,2.58,0,0,1-.61-1.06,5.41,5.41,0,0,1,0-2.95,3,3,0,0,1,.61-1.11,2.61,2.61,0,0,1,1-.69,3.4,3.4,0,0,1,1.31-.24,3.46,3.46,0,0,1,1.31.22,2.32,2.32,0,0,1,.89.63,2.52,2.52,0,0,1,.51.94,4.13,4.13,0,0,1,.16,1.19Zm-1.66-.5a1.81,1.81,0,0,0-.29-1.13,1.12,1.12,0,0,0-1-.42,1.21,1.21,0,0,0-.58.13,1.16,1.16,0,0,0-.4.33,1.51,1.51,0,0,0-.25.49,2.35,2.35,0,0,0-.09.6Z" transform="translate(-1.22 -0.47)" fill="#fff"/>
            </g>
            <g id="Group_64" data-name="Group 64" style="isolation: isolate">
              <path id="Path_164" data-name="Path 164" d="M36.05,36a6.66,6.66,0,0,1-.27,2A3.9,3.9,0,0,1,35,39.46a3.52,3.52,0,0,1-1.33.93,5,5,0,0,1-1.84.31A5.52,5.52,0,0,1,30,40.43a3.11,3.11,0,0,1-1.28-.82,3.55,3.55,0,0,1-.77-1.41,7.1,7.1,0,0,1-.25-2,6.38,6.38,0,0,1,.3-1.95,3.84,3.84,0,0,1,.81-1.46,3.67,3.67,0,0,1,1.34-.93A5,5,0,0,1,32,31.54a5.31,5.31,0,0,1,1.77.27,3.14,3.14,0,0,1,1.29.82,3.65,3.65,0,0,1,.78,1.4A6.86,6.86,0,0,1,36.05,36Zm-1.89.1a7,7,0,0,0-.1-1.27,2.79,2.79,0,0,0-.38-1,1.78,1.78,0,0,0-.7-.63,2.35,2.35,0,0,0-1.09-.2,2.22,2.22,0,0,0-1.11.25,2.1,2.1,0,0,0-.72.67,2.63,2.63,0,0,0-.38,1,5.55,5.55,0,0,0-.12,1.18,7.25,7.25,0,0,0,.11,1.3,3,3,0,0,0,.37,1,1.74,1.74,0,0,0,.7.62,2.4,2.4,0,0,0,1.1.22A2.22,2.22,0,0,0,33,39a2,2,0,0,0,.72-.67,2.75,2.75,0,0,0,.38-1,5.82,5.82,0,0,0,.06-1.21Z" transform="translate(-1.22 -0.47)" fill="#fff"/>
              <path id="Path_165" data-name="Path 165" d="M41.49,31.89a2.581,2.581,0,0,1,0,.32.6.6,0,0,1,0,.18.17.17,0,0,1-.06.09.11.11,0,0,1-.07,0,.23.23,0,0,1-.11,0H40.9a1.06,1.06,0,0,0-.27,0,1,1,0,0,0-.32,0,.5.5,0,0,0-.22.19.84.84,0,0,0-.13.33,2.31,2.31,0,0,0,0,.49V34H41a.17.17,0,0,1,.12,0,.24.24,0,0,1,.08.11.55.55,0,0,1,0,.22,1.62,1.62,0,0,1,0,.33,1.43,1.43,0,0,1-.07.54.22.22,0,0,1-.2.16H39.86v4.93a.16.16,0,0,1,0,.12.24.24,0,0,1-.14.09,1.2,1.2,0,0,1-.26,0h-.83a1.19,1.19,0,0,1-.27,0,.24.24,0,0,1-.14-.09.21.21,0,0,1,0-.12V35.38h-.76c-.09,0-.15-.06-.2-.16a1.73,1.73,0,0,1-.06-.54,2.92,2.92,0,0,1,0-.33.87.87,0,0,1,0-.22.2.2,0,0,1,.09-.11.16.16,0,0,1,.12,0h.75v-.51a4.4,4.4,0,0,1,.13-1.09,2,2,0,0,1,.38-.78,1.7,1.7,0,0,1,.67-.47,5.115,5.115,0,0,1,1.51-.15,2,2,0,0,1,.38.1.49.49,0,0,1,.18.09.32.32,0,0,1,.08.13,1.09,1.09,0,0,1,0,.22,2.92,2.92,0,0,1,0,.33Z" transform="translate(-1.22 -0.47)" fill="#fff"/>
              <path id="Path_166" data-name="Path 166" d="M46.27,31.89a2.581,2.581,0,0,1,0,.32.6.6,0,0,1,0,.18.17.17,0,0,1-.06.09.11.11,0,0,1-.07,0,.23.23,0,0,1-.11,0h-.35a1.06,1.06,0,0,0-.27,0,1,1,0,0,0-.32,0,.5.5,0,0,0-.22.19.84.84,0,0,0-.13.33,2.31,2.31,0,0,0,0,.49V34h1.11a.17.17,0,0,1,.12,0,.24.24,0,0,1,.08.11.55.55,0,0,1,0,.22,1.62,1.62,0,0,1,0,.33,1.43,1.43,0,0,1-.07.54.22.22,0,0,1-.2.16H44.64v4.93a.16.16,0,0,1,0,.12.24.24,0,0,1-.14.09,1.2,1.2,0,0,1-.26,0h-.83a1.19,1.19,0,0,1-.27,0,.24.24,0,0,1-.14-.09.21.21,0,0,1,0-.12V35.38h-.76c-.09,0-.15-.06-.2-.16a1.73,1.73,0,0,1-.06-.54,1.62,1.62,0,0,1,0-.33.87.87,0,0,1,0-.22.2.2,0,0,1,.09-.11.16.16,0,0,1,.12,0h.75v-.51a4.4,4.4,0,0,1,.13-1.09,2,2,0,0,1,.38-.78,1.7,1.7,0,0,1,.67-.47A3.19,3.19,0,0,1,45.57,31a2,2,0,0,1,.38.1.49.49,0,0,1,.18.09.32.32,0,0,1,.08.13,1.09,1.09,0,0,1,0,.22,2.92,2.92,0,0,1,.06.35Z" transform="translate(-1.22 -0.47)" fill="#fff"/>
              <path id="Path_167" data-name="Path 167" d="M52.76,37.09a.67.67,0,0,1-.14.46.53.53,0,0,1-.39.15H48.52a2.6,2.6,0,0,0,.09.71,1.41,1.41,0,0,0,.29.54,1.35,1.35,0,0,0,.52.34,2.2,2.2,0,0,0,.77.11,4.62,4.62,0,0,0,.79-.06,5.179,5.179,0,0,0,.59-.14l.41-.15a.83.83,0,0,1,.27-.06.16.16,0,0,1,.1,0,.22.22,0,0,1,.07.09.61.61,0,0,1,0,.17v.28a1.93,1.93,0,0,1,0,.26.9.9,0,0,1,0,.18.5.5,0,0,1,0,.13.61.61,0,0,1-.07.1,1.08,1.08,0,0,1-.24.13,5.271,5.271,0,0,1-.51.16c-.21.05-.44.1-.7.14a7.62,7.62,0,0,1-.85.05,4.75,4.75,0,0,1-1.43-.2,2.62,2.62,0,0,1-1-.62A2.58,2.58,0,0,1,47,38.82a5.41,5.41,0,0,1,0-3,3.13,3.13,0,0,1,.61-1.11,2.57,2.57,0,0,1,1-.69,3.31,3.31,0,0,1,1.3-.24,3.46,3.46,0,0,1,1.31.22,2.32,2.32,0,0,1,.89.63,2.52,2.52,0,0,1,.51.94,4.12,4.12,0,0,1,.17,1.19Zm-1.67-.5a1.81,1.81,0,0,0-.29-1.13,1.12,1.12,0,0,0-1-.42,1.14,1.14,0,0,0-.57.13,1.11,1.11,0,0,0-.41.33,1.49,1.49,0,0,0-.24.49,2.35,2.35,0,0,0-.1.6Z" transform="translate(-1.22 -0.47)" fill="#fff"/>
              <path id="Path_168" data-name="Path 168" d="M58.44,34.78v.41a1.19,1.19,0,0,1,0,.24.32.32,0,0,1-.07.13.2.2,0,0,1-.11,0h-.12l-.16-.06h-.41a.75.75,0,0,0-.29.06,1.69,1.69,0,0,0-.3.18,2,2,0,0,0-.32.33,5.1,5.1,0,0,0-.36.5v3.8a.16.16,0,0,1,0,.12.24.24,0,0,1-.14.09,1.2,1.2,0,0,1-.26,0H54.8a.28.28,0,0,1-.14-.09.16.16,0,0,1,0-.12V34.22a.21.21,0,0,1,0-.12.25.25,0,0,1,.13-.09,1,1,0,0,1,.23,0h.71a.8.8,0,0,1,.22,0,.23.23,0,0,1,.12.09.21.21,0,0,1,0,.12V35a6.06,6.06,0,0,1,.45-.56,2.93,2.93,0,0,1,.4-.35,1.14,1.14,0,0,1,.39-.18,1.24,1.24,0,0,1,.38-.05h.4l.2.05.11.07a.16.16,0,0,1,.06.08.53.53,0,0,1,0,.11,1.06,1.06,0,0,1,0,.21A2.363,2.363,0,0,0,58.44,34.78Z" transform="translate(-1.22 -0.47)" fill="#fff"/>
              <path id="Path_169" data-name="Path 169" d="M66.38,37.11a1.42,1.42,0,0,1-.07.55.25.25,0,0,1-.24.16H63.23a.26.26,0,0,1-.25-.16,1.41,1.41,0,0,1-.08-.55,1.32,1.32,0,0,1,.08-.54.25.25,0,0,1,.25-.16h2.84a.32.32,0,0,1,.14,0,.4.4,0,0,1,.1.12.64.64,0,0,1,.06.22,3.219,3.219,0,0,1,.01.36Z" transform="translate(-1.22 -0.47)" fill="#fff"/>
              <path id="Path_170" data-name="Path 170" d="M77.15,38a2.6,2.6,0,0,1-.26,1.18,2.44,2.44,0,0,1-.7.86,3.21,3.21,0,0,1-1.08.53,5,5,0,0,1-1.37.18,5.57,5.57,0,0,1-.85-.06,6.749,6.749,0,0,1-.7-.16,3.889,3.889,0,0,1-.51-.2,1.82,1.82,0,0,1-.26-.16.34.34,0,0,1-.09-.12.75.75,0,0,1,0-.16,1.2,1.2,0,0,1,0-.23v-.34a1.23,1.23,0,0,1,.06-.46.17.17,0,0,1,.16-.12.6.6,0,0,1,.24.09,3.63,3.63,0,0,0,.43.2,4.759,4.759,0,0,0,.6.19,2.83,2.83,0,0,0,.8.1,2.19,2.19,0,0,0,.66-.09,1.51,1.51,0,0,0,.49-.25,1.14,1.14,0,0,0,.3-.39,1.19,1.19,0,0,0,.1-.51,1.23,1.23,0,0,0-.12-.55,1,1,0,0,0-.36-.42,1.54,1.54,0,0,0-.59-.27,3.05,3.05,0,0,0-.85-.1h-.91a.19.19,0,0,1-.1-.1.53.53,0,0,1-.06-.21,3,3,0,0,1,0-.35,2.58,2.58,0,0,1,0-.32.72.72,0,0,1,0-.2.28.28,0,0,1,.1-.09.29.29,0,0,1,.14,0h.77a2.48,2.48,0,0,0,.7-.09,1.49,1.49,0,0,0,.52-.26,1.18,1.18,0,0,0,.32-.42,1.32,1.32,0,0,0,.11-.53,1.18,1.18,0,0,0-.08-.43.93.93,0,0,0-.6-.58,1.51,1.51,0,0,0-.55-.09,2.14,2.14,0,0,0-.67.11,5,5,0,0,0-.56.23,2.61,2.61,0,0,0-.42.24.62.62,0,0,1-.26.11.17.17,0,0,1-.1,0,.16.16,0,0,1-.06-.09.5.5,0,0,1,0-.2,2.921,2.921,0,0,1,0-.33,2.439,2.439,0,0,1,0-.29.54.54,0,0,1,0-.19.5.5,0,0,1,0-.13.77.77,0,0,1,.1-.12,1.751,1.751,0,0,1,.28-.19,2.64,2.64,0,0,1,.53-.25,4.11,4.11,0,0,1,.74-.21,4.39,4.39,0,0,1,.91-.09,3.94,3.94,0,0,1,1.14.15,2.4,2.4,0,0,1,.84.44,1.89,1.89,0,0,1,.51.7,2.45,2.45,0,0,1,.17.93,2.57,2.57,0,0,1-.1.75,2.1,2.1,0,0,1-.3.62,1.88,1.88,0,0,1-.5.47,2.21,2.21,0,0,1-.68.28h0a2.6,2.6,0,0,1,.83.24,2.11,2.11,0,0,1,.63.45A2,2,0,0,1,77.15,38Z" transform="translate(-1.22 -0.47)" fill="#fff"/>
              <path id="Path_171" data-name="Path 171" d="M84.81,36.09A10.121,10.121,0,0,1,84.64,38a4.08,4.08,0,0,1-.56,1.46,2.53,2.53,0,0,1-1,.92,3.78,3.78,0,0,1-3,0,2.3,2.3,0,0,1-.94-.89,3.89,3.89,0,0,1-.49-1.43,11.11,11.11,0,0,1-.14-1.91,10,10,0,0,1,.17-1.91,4.2,4.2,0,0,1,.56-1.46,2.65,2.65,0,0,1,1-.93,3.26,3.26,0,0,1,1.5-.32,3.35,3.35,0,0,1,1.51.31,2.35,2.35,0,0,1,1,.9,4.08,4.08,0,0,1,.48,1.43,11,11,0,0,1,.08,1.92ZM83,36.18V35.07a5.87,5.87,0,0,0-.1-.84,3.09,3.09,0,0,0-.18-.6,1,1,0,0,0-.26-.39.75.75,0,0,0-.34-.21,1.37,1.37,0,0,0-.42-.07,1.11,1.11,0,0,0-.67.2,1.29,1.29,0,0,0-.41.58,3.48,3.48,0,0,0-.22,1,16.44,16.44,0,0,0,0,2.92,3.41,3.41,0,0,0,.24,1,1.12,1.12,0,0,0,.41.52,1.2,1.2,0,0,0,.61.14,1.13,1.13,0,0,0,.47-.08.93.93,0,0,0,.36-.26,1.3,1.3,0,0,0,.26-.43,3.629,3.629,0,0,0,.17-.6c0-.23.07-.49.09-.77S83,36.52,83,36.18Z" transform="translate(-1.22 -0.47)" fill="#fff"/>
              <path id="Path_172" data-name="Path 172" d="M90,33.87a3.7,3.7,0,0,1-.12,1,2.14,2.14,0,0,1-.37.74,1.87,1.87,0,0,1-.65.48,2.43,2.43,0,0,1-.94.17,2.48,2.48,0,0,1-1-.17,1.5,1.5,0,0,1-.62-.48,1.7,1.7,0,0,1-.33-.72,4,4,0,0,1-.1-.94,3.45,3.45,0,0,1,.12-.94,2,2,0,0,1,.37-.74,1.57,1.57,0,0,1,.64-.49,2.25,2.25,0,0,1,.94-.18,2.46,2.46,0,0,1,1,.19,1.62,1.62,0,0,1,.62.5,1.92,1.92,0,0,1,.31.73A4.14,4.14,0,0,1,90,33.87ZM88.16,40.5a.77.77,0,0,1-.12.13l-.16.09a.86.86,0,0,1-.24,0h-.33a1.73,1.73,0,0,1-.36,0,.49.49,0,0,1-.19-.08.14.14,0,0,1-.05-.13.42.42,0,0,1,.08-.17L93.1,31.7l.12-.13a.6.6,0,0,1,.16-.08.85.85,0,0,1,.24-.05h.33a1.73,1.73,0,0,1,.36,0,.49.49,0,0,1,.19.08.14.14,0,0,1,0,.13.4.4,0,0,1-.09.17Zm.51-6.58a4,4,0,0,0,0-.64,1.1,1.1,0,0,0-.12-.42.52.52,0,0,0-.22-.24.66.66,0,0,0-.32-.08.73.73,0,0,0-.3.07.61.61,0,0,0-.22.23,1.77,1.77,0,0,0-.12.42,3.771,3.771,0,0,0,0,.63,4.409,4.409,0,0,0,0,.69,1.46,1.46,0,0,0,.14.42.47.47,0,0,0,.22.22.73.73,0,0,0,.3.06.67.67,0,0,0,.33-.08.58.58,0,0,0,.21-.25,1.42,1.42,0,0,0,.11-.42,5.28,5.28,0,0,0-.01-.61Zm6.69,4.38a3.63,3.63,0,0,1-.12,1,1.91,1.91,0,0,1-.37.74,1.65,1.65,0,0,1-.65.48,2.23,2.23,0,0,1-.94.17,2.31,2.31,0,0,1-1-.17,1.48,1.48,0,0,1-.62-.47,1.81,1.81,0,0,1-.33-.73,4.549,4.549,0,0,1-.09-.94,3.51,3.51,0,0,1,.11-.94,2.06,2.06,0,0,1,.37-.74,1.66,1.66,0,0,1,.64-.49,2.945,2.945,0,0,1,2,.01,1.55,1.55,0,0,1,.62.5,1.92,1.92,0,0,1,.31.73,4.171,4.171,0,0,1,.07.85Zm-1.35,0a5.269,5.269,0,0,0,0-.63,1.37,1.37,0,0,0-.13-.43.52.52,0,0,0-.22-.24.63.63,0,0,0-.36,0,.61.61,0,0,0-.3,0,.48.48,0,0,0-.21.23,1.24,1.24,0,0,0-.13.41,3.85,3.85,0,0,0,0,.63,3.359,3.359,0,0,0,0,.69,1.29,1.29,0,0,0,.13.43.55.55,0,0,0,.22.21.73.73,0,0,0,.3.06.64.64,0,0,0,.33-.08.5.5,0,0,0,.21-.24A1.42,1.42,0,0,0,94,39a3.719,3.719,0,0,0,0-.66Z" transform="translate(-1.22 -0.47)" fill="#fff"/>
            </g>
            <g id="Group_65" data-name="Group 65" style="isolation: isolate">
              <path id="Path_173" data-name="Path 173" d="M33.87,52.71a1.81,1.81,0,0,1,0,.46.38.38,0,0,1-.1.23.5.5,0,0,1-.18.11,1,1,0,0,1-.28.09,1.7,1.7,0,0,1-.35.06,2.36,2.36,0,0,1-.38,0,2.59,2.59,0,0,1-.88-.13,1.48,1.48,0,0,1-.63-.4,1.7,1.7,0,0,1-.36-.68,3.45,3.45,0,0,1-.11-1V48.38h-.74a.22.22,0,0,1-.19-.16,1.43,1.43,0,0,1-.07-.54,3.22,3.22,0,0,1,0-.33.75.75,0,0,1,.06-.22.24.24,0,0,1,.08-.11.19.19,0,0,1,.12,0h.73v-1.4a.27.27,0,0,1,0-.12.24.24,0,0,1,.14-.09.83.83,0,0,1,.27-.06h.83a.77.77,0,0,1,.26.06.24.24,0,0,1,.14.09.19.19,0,0,1,0,.12V47H33.6a.19.19,0,0,1,.12,0,.24.24,0,0,1,.08.11.55.55,0,0,1,.05.22,1.62,1.62,0,0,1,0,.33,1.43,1.43,0,0,1-.07.54.22.22,0,0,1-.2.16H32.27v2.86a1.37,1.37,0,0,0,.16.75.6.6,0,0,0,.56.25h.25l.19-.06h.25a.13.13,0,0,1,.08,0,.23.23,0,0,1,.06.09v.2a1.37,1.37,0,0,1,.05.26Z" transform="translate(-1.22 -0.47)" fill="#fff"/>
              <path id="Path_174" data-name="Path 174" d="M41.25,53.31a.16.16,0,0,1,0,.12.19.19,0,0,1-.12.09.9.9,0,0,1-.22,0h-.72a.9.9,0,0,1-.22,0,.23.23,0,0,1-.12-.09.21.21,0,0,1,0-.12v-.7a3.94,3.94,0,0,1-1,.82,2.33,2.33,0,0,1-1.08.27,2.57,2.57,0,0,1-1.06-.2,2,2,0,0,1-.69-.56,2.26,2.26,0,0,1-.38-.83A5.37,5.37,0,0,1,35.43,51V47.22a.16.16,0,0,1,0-.12.21.21,0,0,1,.14-.09,1.2,1.2,0,0,1,.26,0h.83A1.46,1.46,0,0,1,37,47a.28.28,0,0,1,.14.09.21.21,0,0,1,0,.12v3.44a3.36,3.36,0,0,0,.06.73,1.18,1.18,0,0,0,.19.44.87.87,0,0,0,.32.28,1.06,1.06,0,0,0,.45.1,1.12,1.12,0,0,0,.66-.24,3.85,3.85,0,0,0,.71-.7V47.22a.16.16,0,0,1,0-.12.22.22,0,0,1,.13-.09A1.46,1.46,0,0,1,40,47h.83a1.2,1.2,0,0,1,.26,0,.28.28,0,0,1,.14.09.21.21,0,0,1,0,.12Z" transform="translate(-1.22 -0.47)" fill="#fff"/>
              <path id="Path_175" data-name="Path 175" d="M45.18,45.15a1,1,0,0,1-.21.72,1.17,1.17,0,0,1-.79.2,1.21,1.21,0,0,1-.78-.19,1.332,1.332,0,0,1,.01-1.42,1.64,1.64,0,0,1,1.57,0A1,1,0,0,1,45.18,45.15Zm-.13,8.16a.16.16,0,0,1,0,.12.24.24,0,0,1-.14.09,1.33,1.33,0,0,1-.26,0h-.84a1.33,1.33,0,0,1-.26,0,.24.24,0,0,1-.14-.09.16.16,0,0,1,0-.12V47.23a.16.16,0,0,1,0-.12.42.42,0,0,1,.14-.09l.26-.06h.84l.26.06a.42.42,0,0,1,.14.09.16.16,0,0,1,0,.12Z" transform="translate(-1.22 -0.47)" fill="#fff"/>
              <path id="Path_176" data-name="Path 176" d="M50.73,52.71a2.43,2.43,0,0,1,0,.46.55.55,0,0,1-.1.23.5.5,0,0,1-.18.11,1.15,1.15,0,0,1-.28.09,2,2,0,0,1-.35.06,2.421,2.421,0,0,1-.38,0,2.65,2.65,0,0,1-.89-.13,1.39,1.39,0,0,1-.62-.4,1.48,1.48,0,0,1-.36-.68,3.43,3.43,0,0,1-.12-1V48.38h-.73c-.09,0-.15-.06-.2-.16a1.67,1.67,0,0,1-.07-.54,2.92,2.92,0,0,1,0-.33.8.8,0,0,1,0-.22.2.2,0,0,1,.09-.11.16.16,0,0,1,.12,0h.72v-1.4a.19.19,0,0,1,0-.12.22.22,0,0,1,.13-.09.9.9,0,0,1,.27-.06h.84a.83.83,0,0,1,.26.06.22.22,0,0,1,.13.09.21.21,0,0,1,.05.12V47h1.32a.16.16,0,0,1,.12,0,.725.725,0,0,1,.09.11.8.8,0,0,1,.05.22,2.919,2.919,0,0,1,0,.33,1.67,1.67,0,0,1-.07.54c0,.1-.11.16-.2.16H49.13v2.86a1.48,1.48,0,0,0,.15.75.61.61,0,0,0,.56.25h.25l.19-.06h.25a.11.11,0,0,1,.08,0l.06.09c.06.09,0,.12,0,.2a2.41,2.41,0,0,1,.06.26Z" transform="translate(-1.22 -0.47)" fill="#fff"/>
              <path id="Path_177" data-name="Path 177" d="M54.17,45.15a1,1,0,0,1-.21.72,1.17,1.17,0,0,1-.79.2,1.23,1.23,0,0,1-.78-.19,1.332,1.332,0,0,1,.01-1.42,1.641,1.641,0,0,1,1.57,0A1,1,0,0,1,54.17,45.15ZM54,53.31a.16.16,0,0,1,0,.12.24.24,0,0,1-.14.09,1.2,1.2,0,0,1-.26,0h-.84a1.33,1.33,0,0,1-.26,0,.28.28,0,0,1-.14-.09.16.16,0,0,1,0-.12V47.23a.16.16,0,0,1,0-.12A.56.56,0,0,1,52.5,47l.26-.06h.84l.26.06a.42.42,0,0,1,.14.09.16.16,0,0,1,0,.12Z" transform="translate(-1.22 -0.47)" fill="#fff"/>
              <path id="Path_178" data-name="Path 178" d="M62.27,50.2a4.51,4.51,0,0,1-.2,1.42,3,3,0,0,1-.62,1.11,2.81,2.81,0,0,1-1.05.72,3.9,3.9,0,0,1-1.47.25,4,4,0,0,1-1.41-.22,2.5,2.5,0,0,1-1-.66,2.68,2.68,0,0,1-.59-1.06,4.85,4.85,0,0,1-.19-1.43A4.62,4.62,0,0,1,56,48.9a3.16,3.16,0,0,1,.62-1.11,2.91,2.91,0,0,1,1-.71,3.81,3.81,0,0,1,1.46-.25,4,4,0,0,1,1.42.22,2.48,2.48,0,0,1,1,.65,2.66,2.66,0,0,1,.58,1.06,4.88,4.88,0,0,1,.19,1.44Zm-1.77.07a4.28,4.28,0,0,0-.07-.83,2.15,2.15,0,0,0-.24-.66,1.22,1.22,0,0,0-.46-.44,1.47,1.47,0,0,0-.71-.15,1.44,1.44,0,0,0-.67.14,1.16,1.16,0,0,0-.47.41,1.94,1.94,0,0,0-.28.65,3.72,3.72,0,0,0-.09.86,4.279,4.279,0,0,0,.07.83,2.45,2.45,0,0,0,.25.66,1.1,1.1,0,0,0,.45.43,1.41,1.41,0,0,0,.71.16,1.59,1.59,0,0,0,.68-.14,1.16,1.16,0,0,0,.47-.41,2,2,0,0,0,.28-.64,4.6,4.6,0,0,0,.08-.87Z" transform="translate(-1.22 -0.47)" fill="#fff"/>
              <path id="Path_179" data-name="Path 179" d="M69.81,53.31a.16.16,0,0,1,0,.12.24.24,0,0,1-.14.09,1.2,1.2,0,0,1-.26,0h-.84a1.2,1.2,0,0,1-.26,0,.28.28,0,0,1-.14-.09.21.21,0,0,1,0-.12V49.83a3.14,3.14,0,0,0-.06-.69,1.36,1.36,0,0,0-.19-.44.87.87,0,0,0-.32-.28,1.06,1.06,0,0,0-.45-.1,1.12,1.12,0,0,0-.66.24,3.29,3.29,0,0,0-.7.7v4.05a.21.21,0,0,1,0,.12.28.28,0,0,1-.14.09,1.46,1.46,0,0,1-.27,0h-.83a1.2,1.2,0,0,1-.26,0,.21.21,0,0,1-.14-.09.16.16,0,0,1,0-.12V47.22a.21.21,0,0,1,0-.12.19.19,0,0,1,.12-.09h.95a.9.9,0,0,1,.22,0,.2.2,0,0,1,.11.09.21.21,0,0,1,0,.12v.7a3.75,3.75,0,0,1,1-.82,2.37,2.37,0,0,1,1.09-.27,2.34,2.34,0,0,1,1.05.2,1.75,1.75,0,0,1,.69.56,2.06,2.06,0,0,1,.38.82,4.69,4.69,0,0,1,.12,1.14Z" transform="translate(-1.22 -0.47)" fill="#fff"/>
              <path id="Path_180" data-name="Path 180" d="M79,44.89a2.919,2.919,0,0,1,0,.32,1.27,1.27,0,0,1,0,.18s0,.08-.07.09a.09.09,0,0,1-.07,0h-.45a1.19,1.19,0,0,0-.28,0,1,1,0,0,0-.31,0,.53.53,0,0,0-.23.19,1,1,0,0,0-.13.33,3.229,3.229,0,0,0,0,.49V47h1.12a.15.15,0,0,1,.11,0,.35.35,0,0,1,.09.11.8.8,0,0,1,0,.22,3.217,3.217,0,0,1,0,.33,1.73,1.73,0,0,1-.06.54.24.24,0,0,1-.2.16H77.41v4.93a.16.16,0,0,1,0,.12.25.25,0,0,1-.13.09,1.46,1.46,0,0,1-.27,0h-.83a1.46,1.46,0,0,1-.27,0,.22.22,0,0,1-.13-.09.16.16,0,0,1,0-.12V48.38h-.77a.22.22,0,0,1-.19-.16,1.43,1.43,0,0,1-.07-.54,2.921,2.921,0,0,1,0-.33.8.8,0,0,1,0-.22.24.24,0,0,1,.08-.11.16.16,0,0,1,.12,0h.76v-.51a4.43,4.43,0,0,1,.12-1.09,1.91,1.91,0,0,1,.39-.78,1.63,1.63,0,0,1,.67-.47,5.081,5.081,0,0,1,1.5-.15,1.85,1.85,0,0,1,.38.1.49.49,0,0,1,.18.09.24.24,0,0,1,.08.13,1,1,0,0,1,0,.22A3.219,3.219,0,0,1,79,44.89Z" transform="translate(-1.22 -0.47)" fill="#fff"/>
              <path id="Path_181" data-name="Path 181" d="M85.53,50.09a.67.67,0,0,1-.14.46.5.5,0,0,1-.39.15H81.29a2.6,2.6,0,0,0,.09.71,1.3,1.3,0,0,0,.3.54,1.21,1.21,0,0,0,.52.34,2.14,2.14,0,0,0,.76.11,4.62,4.62,0,0,0,.79-.06,4.712,4.712,0,0,0,.59-.14c.17-.06.31-.1.42-.15A.84.84,0,0,1,85,52a.116.116,0,0,1,.17.09.61.61,0,0,1,0,.17,2.35,2.35,0,0,1,0,.28v.44a.28.28,0,0,1,0,.13.3.3,0,0,1-.07.1,1.08,1.08,0,0,1-.24.13,3.94,3.94,0,0,1-.51.16c-.2.05-.44.1-.7.14a7.618,7.618,0,0,1-.85.05,4.63,4.63,0,0,1-1.42-.2,2.73,2.73,0,0,1-1-.62,2.69,2.69,0,0,1-.61-1.06,5.07,5.07,0,0,1-.2-1.49,4.72,4.72,0,0,1,.21-1.46,3,3,0,0,1,.62-1.11,2.53,2.53,0,0,1,1-.69,3.35,3.35,0,0,1,1.3-.24,3.42,3.42,0,0,1,1.31.22,2.32,2.32,0,0,1,.89.63,2.54,2.54,0,0,1,.52.94,4.5,4.5,0,0,1,.16,1.19Zm-1.67-.5a1.69,1.69,0,0,0-.29-1.13,1.12,1.12,0,0,0-1-.42,1.14,1.14,0,0,0-.57.13,1.08,1.08,0,0,0-.4.33,1.51,1.51,0,0,0-.25.49,2.35,2.35,0,0,0-.1.6Z" transform="translate(-1.22 -0.47)" fill="#fff"/>
              <path id="Path_182" data-name="Path 182" d="M92.93,50.09a.67.67,0,0,1-.14.46.53.53,0,0,1-.39.15H88.69a2.6,2.6,0,0,0,.09.71,1.3,1.3,0,0,0,.3.54,1.24,1.24,0,0,0,.51.34,2.24,2.24,0,0,0,.77.11,4.62,4.62,0,0,0,.79-.06,5.18,5.18,0,0,0,.59-.14l.41-.15a.83.83,0,0,1,.27-.06.15.15,0,0,1,.1,0,.22.22,0,0,1,.07.09.61.61,0,0,1,0,.17,2.348,2.348,0,0,1,0,.28,1.931,1.931,0,0,1,0,.26.9.9,0,0,1,0,.18.5.5,0,0,1,0,.13.61.61,0,0,1-.07.1,1.08,1.08,0,0,1-.24.13,3.941,3.941,0,0,1-.51.16c-.2.05-.44.1-.7.14a7.62,7.62,0,0,1-.85.05,4.75,4.75,0,0,1-1.43-.2,2.77,2.77,0,0,1-1-.62,2.58,2.58,0,0,1-.61-1.06,5.07,5.07,0,0,1-.2-1.49,4.72,4.72,0,0,1,.21-1.46,3,3,0,0,1,.62-1.11,2.53,2.53,0,0,1,1-.69,3.35,3.35,0,0,1,1.3-.24,3.42,3.42,0,0,1,1.31.22,2.32,2.32,0,0,1,.89.63,2.52,2.52,0,0,1,.51.94,4.12,4.12,0,0,1,.17,1.19Zm-1.67-.5A1.75,1.75,0,0,0,91,48.46,1.12,1.12,0,0,0,90,48a1.14,1.14,0,0,0-.57.13,1.2,1.2,0,0,0-.41.33,1.49,1.49,0,0,0-.24.49,2.35,2.35,0,0,0-.1.6Z" transform="translate(-1.22 -0.47)" fill="#fff"/>
            </g>
            <g id="Group_66" data-name="Group 66" style="isolation: isolate">
              <path id="Path_183" data-name="Path 183" d="M33.65,65.34a2.631,2.631,0,0,1,0,.3v.2a.47.47,0,0,1,0,.14.44.44,0,0,1-.1.12,1.59,1.59,0,0,1-.28.2,4,4,0,0,1-.46.2,2.761,2.761,0,0,1-.55.14,3,3,0,0,1-.61.06,3.48,3.48,0,0,1-1.25-.22,2.38,2.38,0,0,1-.91-.65,3,3,0,0,1-.56-1,5,5,0,0,1-.18-1.41,4.66,4.66,0,0,1,.23-1.58,3.07,3.07,0,0,1,.63-1.11,2.71,2.71,0,0,1,1-.65,3.45,3.45,0,0,1,1.23-.21,3.07,3.07,0,0,1,.53.05,3.169,3.169,0,0,1,.49.13,2.63,2.63,0,0,1,.41.19.89.89,0,0,1,.26.17l.11.13a.4.4,0,0,1,0,.13.6.6,0,0,1,0,.2,2.53,2.53,0,0,1,0,.29,1.45,1.45,0,0,1-.07.56.165.165,0,0,1-.17.16.45.45,0,0,1-.25-.09l-.31-.22a4.1,4.1,0,0,0-.42-.21,1.74,1.74,0,0,0-.59-.09,1.15,1.15,0,0,0-1,.51,2.67,2.67,0,0,0-.36,1.52,3.81,3.81,0,0,0,.09.87,1.87,1.87,0,0,0,.26.62,1.07,1.07,0,0,0,.44.38,1.33,1.33,0,0,0,.61.13,1.59,1.59,0,0,0,.61-.1,3.131,3.131,0,0,0,.45-.24l.32-.24a.38.38,0,0,1,.22-.1.15.15,0,0,1,.1,0,.26.26,0,0,1,.07.13v.23C33.64,65.07,33.65,65.19,33.65,65.34Z" transform="translate(-1.22 -0.47)" fill="#fff"/>
              <path id="Path_184" data-name="Path 184" d="M41.34,63.2a4.82,4.82,0,0,1-.2,1.42,3,3,0,0,1-.63,1.11,2.7,2.7,0,0,1-1,.72A3.9,3.9,0,0,1,38,66.7a4.07,4.07,0,0,1-1.42-.22,2.47,2.47,0,0,1-1-.66A2.68,2.68,0,0,1,35,64.76a4.85,4.85,0,0,1-.19-1.43A4.62,4.62,0,0,1,35,61.9a2.88,2.88,0,0,1,.62-1.11,3,3,0,0,1,1-.71,3.9,3.9,0,0,1,1.47-.25,4,4,0,0,1,1.42.22,2.55,2.55,0,0,1,1,.65,2.79,2.79,0,0,1,.58,1.06,4.88,4.88,0,0,1,.25,1.44Zm-1.77.07a4.28,4.28,0,0,0-.07-.83,2.15,2.15,0,0,0-.24-.66,1.29,1.29,0,0,0-.46-.44,1.49,1.49,0,0,0-.71-.15,1.41,1.41,0,0,0-.67.14,1.16,1.16,0,0,0-.47.41,1.75,1.75,0,0,0-.28.65,3.72,3.72,0,0,0-.09.86,4.28,4.28,0,0,0,.07.83,1.93,1.93,0,0,0,.25.66,1.1,1.1,0,0,0,.45.43,1.41,1.41,0,0,0,.71.16,1.59,1.59,0,0,0,.68-.14,1.16,1.16,0,0,0,.47-.41,2,2,0,0,0,.27-.64,3.88,3.88,0,0,0,.09-.87Z" transform="translate(-1.22 -0.47)" fill="#fff"/>
              <path id="Path_185" data-name="Path 185" d="M48.88,66.31a.21.21,0,0,1,0,.12.28.28,0,0,1-.14.09,1.33,1.33,0,0,1-.26,0h-.84a1.2,1.2,0,0,1-.26,0,.24.24,0,0,1-.14-.09.16.16,0,0,1,0-.12V62.83a3.14,3.14,0,0,0-.06-.69,1.62,1.62,0,0,0-.19-.44.87.87,0,0,0-.32-.28,1.06,1.06,0,0,0-.45-.1,1.17,1.17,0,0,0-.67.24,3.83,3.83,0,0,0-.7.7v4.05a.16.16,0,0,1,0,.12.21.21,0,0,1-.14.09,1.2,1.2,0,0,1-.26,0h-.83a1.46,1.46,0,0,1-.27,0,.28.28,0,0,1-.14-.09.21.21,0,0,1,0-.12V60.22a.16.16,0,0,1,0-.12.19.19,0,0,1,.12-.09h.94a1,1,0,0,1,.23,0,.24.24,0,0,1,.11.09.21.21,0,0,1,0,.12v.7a3.94,3.94,0,0,1,1-.82,2.56,2.56,0,0,1,2.08-.1,1.75,1.75,0,0,1,.69.56,2.21,2.21,0,0,1,.38.82,4.69,4.69,0,0,1,.12,1.14Z" transform="translate(-1.22 -0.47)" fill="#fff"/>
              <path id="Path_186" data-name="Path 186" d="M55.53,65.34a2.631,2.631,0,0,1,0,.3v.2a.47.47,0,0,1,0,.14.54.54,0,0,1-.11.12,1.06,1.06,0,0,1-.28.2,3.18,3.18,0,0,1-.45.2,3,3,0,0,1-.55.14,3.08,3.08,0,0,1-.61.06,3.48,3.48,0,0,1-1.25-.22,2.38,2.38,0,0,1-.91-.65,2.81,2.81,0,0,1-.56-1,5,5,0,0,1-.18-1.41,4.94,4.94,0,0,1,.22-1.58,3.24,3.24,0,0,1,.64-1.11,2.76,2.76,0,0,1,1-.65,3.53,3.53,0,0,1,1.23-.21,3.1,3.1,0,0,1,.54.05,3.169,3.169,0,0,1,.49.13,2.629,2.629,0,0,1,.41.19,1.05,1.05,0,0,1,.26.17l.11.13a.4.4,0,0,1,0,.13,1.06,1.06,0,0,1,0,.2,2.529,2.529,0,0,1,0,.29,1.45,1.45,0,0,1-.07.56.165.165,0,0,1-.17.16.45.45,0,0,1-.25-.09l-.31-.22-.42-.21a1.74,1.74,0,0,0-.59-.09,1.18,1.18,0,0,0-1,.51,2.75,2.75,0,0,0-.35,1.52,3.81,3.81,0,0,0,.09.87,1.68,1.68,0,0,0,.26.62,1.07,1.07,0,0,0,.44.38,1.31,1.31,0,0,0,.61.13,1.59,1.59,0,0,0,.61-.1,3.131,3.131,0,0,0,.45-.24l.32-.24a.38.38,0,0,1,.22-.1.15.15,0,0,1,.1,0,.26.26,0,0,1,.07.13v.23C55.54,65.07,55.53,65.19,55.53,65.34Z" transform="translate(-1.22 -0.47)" fill="#fff"/>
              <path id="Path_187" data-name="Path 187" d="M62.76,63.09a.67.67,0,0,1-.14.46.53.53,0,0,1-.39.15H58.52a2.6,2.6,0,0,0,.09.71,1.41,1.41,0,0,0,.29.54,1.35,1.35,0,0,0,.52.34,2.24,2.24,0,0,0,.77.11,4.621,4.621,0,0,0,.79-.06,5.179,5.179,0,0,0,.59-.14l.41-.15a.83.83,0,0,1,.27-.06.15.15,0,0,1,.1,0,.22.22,0,0,1,.07.09.61.61,0,0,1,0,.17,2.351,2.351,0,0,1,0,.28,1.93,1.93,0,0,1,0,.26.9.9,0,0,1,0,.18.5.5,0,0,1,0,.13.61.61,0,0,1-.07.1,1.08,1.08,0,0,1-.24.13,4.509,4.509,0,0,1-.51.16,6.163,6.163,0,0,0-.7.14,7.62,7.62,0,0,1-.85,0,4.75,4.75,0,0,1-1.43-.2,2.69,2.69,0,0,1-1-.62,2.58,2.58,0,0,1-.62-.99,5.41,5.41,0,0,1,0-2.95,3.13,3.13,0,0,1,.61-1.11,2.57,2.57,0,0,1,1-.69,3.35,3.35,0,0,1,1.3-.24,3.46,3.46,0,0,1,1.31.22,2.32,2.32,0,0,1,.89.63,2.52,2.52,0,0,1,.51.94,4.12,4.12,0,0,1,.17,1.19Zm-1.67-.5a1.81,1.81,0,0,0-.29-1.13,1.12,1.12,0,0,0-1-.42,1.14,1.14,0,0,0-.57.13,1.11,1.11,0,0,0-.41.33,1.49,1.49,0,0,0-.24.49,2.35,2.35,0,0,0-.1.6Z" transform="translate(-1.22 -0.47)" fill="#fff"/>
              <path id="Path_188" data-name="Path 188" d="M68.81,64.59a2.07,2.07,0,0,1-.19.92,1.84,1.84,0,0,1-.55.66,2.51,2.51,0,0,1-.84.4,4,4,0,0,1-1,.13,3.53,3.53,0,0,1-.66,0,3.711,3.711,0,0,1-.55-.13,2.06,2.06,0,0,1-.41-.16,1.12,1.12,0,0,1-.24-.15A.55.55,0,0,1,64.2,66a1.72,1.72,0,0,1,0-.45,2.921,2.921,0,0,1,0-.32c0-.08,0-.14,0-.19a.2.2,0,0,1,.07-.1h.1a.62.62,0,0,1,.23.08l.36.19a4.23,4.23,0,0,0,.51.19,2.29,2.29,0,0,0,.66.09,1.28,1.28,0,0,0,.41,0,.93.93,0,0,0,.32-.13.55.55,0,0,0,.2-.23.62.62,0,0,0,.07-.31.48.48,0,0,0-.13-.35,1,1,0,0,0-.33-.26L66.2,64q-.27-.09-.54-.21a4.49,4.49,0,0,1-.54-.26,2.55,2.55,0,0,1-.48-.37,1.9,1.9,0,0,1-.33-.53,2,2,0,0,1-.13-.74,1.91,1.91,0,0,1,.17-.8,1.79,1.79,0,0,1,.5-.63,2.39,2.39,0,0,1,.78-.4,3.89,3.89,0,0,1,1.59-.1,3.261,3.261,0,0,1,.49.1,3.069,3.069,0,0,1,.37.13.86.86,0,0,1,.21.13.24.24,0,0,1,.1.1.34.34,0,0,1,0,.12.9.9,0,0,1,0,.18,2,2,0,0,1,0,.26,2.451,2.451,0,0,1,0,.3.84.84,0,0,1,0,.19.22.22,0,0,1-.07.09.13.13,0,0,1-.09,0,.4.4,0,0,1-.19-.07l-.33-.15a3.33,3.33,0,0,0-.45-.16,2.56,2.56,0,0,0-.58-.07,1.64,1.64,0,0,0-.41.05.74.74,0,0,0-.28.14.632.632,0,0,0-.22.46.57.57,0,0,0,.13.36,1.21,1.21,0,0,0,.35.25l.48.21.54.2a5.6,5.6,0,0,1,.55.27,1.92,1.92,0,0,1,.48.37,1.56,1.56,0,0,1,.34.52A1.75,1.75,0,0,1,68.81,64.59Z" transform="translate(-1.22 -0.47)" fill="#fff"/>
              <path id="Path_189" data-name="Path 189" d="M74.75,64.59a2.08,2.08,0,0,1-.2.92,1.84,1.84,0,0,1-.55.66,2.34,2.34,0,0,1-.84.4,3.87,3.87,0,0,1-1,.13,3.43,3.43,0,0,1-.65,0,3.57,3.57,0,0,1-.56-.13,2.34,2.34,0,0,1-.41-.16,1.12,1.12,0,0,1-.24-.15.55.55,0,0,1-.12-.23,2.31,2.31,0,0,1,0-.45,2.578,2.578,0,0,1,0-.32.78.78,0,0,1,0-.19.2.2,0,0,1,.07-.1h.1a.59.59,0,0,1,.22.08l.37.19a3.25,3.25,0,0,0,.51.19,2.19,2.19,0,0,0,.66.09,1.32,1.32,0,0,0,.41,0,.88.88,0,0,0,.31-.13A.66.66,0,0,0,73,65a.75.75,0,0,0,.06-.31.51.51,0,0,0-.12-.35,1.14,1.14,0,0,0-.34-.26c-.14-.07-.29-.14-.47-.21l-.54-.21c-.18-.08-.36-.16-.54-.26a2.84,2.84,0,0,1-.47-.37,1.93,1.93,0,0,1-.34-.53,2,2,0,0,1-.12-.74,1.91,1.91,0,0,1,.17-.8,1.76,1.76,0,0,1,.49-.63,2.61,2.61,0,0,1,.78-.4,5.648,5.648,0,0,1,1.56-.14,3.26,3.26,0,0,1,.49.1,3.58,3.58,0,0,1,.36.13.78.78,0,0,1,.22.13.28.28,0,0,1,.09.1.34.34,0,0,1,0,.12v.74a.78.78,0,0,1,0,.19.15.15,0,0,1-.06.09.16.16,0,0,1-.1,0,.44.44,0,0,1-.19-.07,2.44,2.44,0,0,0-.32-.15,3.331,3.331,0,0,0-.45-.16,2.65,2.65,0,0,0-.59-.07,1.56,1.56,0,0,0-.4.05.67.67,0,0,0-.28.14.56.56,0,0,0-.17.21.7.7,0,0,0,0,.25.52.52,0,0,0,.13.36,1.15,1.15,0,0,0,.34.25l.48.21.55.2c.18.08.37.17.55.27a1.92,1.92,0,0,1,.48.37,1.7,1.7,0,0,1,.47,1.24Z" transform="translate(-1.22 -0.47)" fill="#fff"/>
              <path id="Path_190" data-name="Path 190" d="M78.24,58.15a1,1,0,0,1-.21.72,1.16,1.16,0,0,1-.78.2,1.24,1.24,0,0,1-.79-.19,1.332,1.332,0,0,1,.01-1.42,1.64,1.64,0,0,1,1.57,0,.92.92,0,0,1,.2.69Zm-.13,8.16a.16.16,0,0,1,0,.12.21.21,0,0,1-.14.09,1.2,1.2,0,0,1-.26,0h-.83a1.46,1.46,0,0,1-.27,0,.28.28,0,0,1-.14-.09.21.21,0,0,1,0-.12V60.23a.21.21,0,0,1,0-.12.56.56,0,0,1,.14-.09l.27-.06h.83l.26.06a.33.33,0,0,1,.14.09.16.16,0,0,1,0,.12Z" transform="translate(-1.22 -0.47)" fill="#fff"/>
              <path id="Path_191" data-name="Path 191" d="M86.35,63.2a4.51,4.51,0,0,1-.21,1.42,3,3,0,0,1-.62,1.11,2.81,2.81,0,0,1-1,.72A3.9,3.9,0,0,1,83,66.7a4,4,0,0,1-1.41-.22,2.5,2.5,0,0,1-1-.66A2.8,2.8,0,0,1,80,64.76a4.85,4.85,0,0,1-.19-1.43A4.619,4.619,0,0,1,80,61.9a3.16,3.16,0,0,1,.62-1.11,2.91,2.91,0,0,1,1-.71,3.81,3.81,0,0,1,1.46-.25,4.13,4.13,0,0,1,1.43.22,2.45,2.45,0,0,1,1,.65,2.66,2.66,0,0,1,.58,1.06,4.86,4.86,0,0,1,.26,1.44Zm-1.77.07a4.249,4.249,0,0,0-.08-.83,1.92,1.92,0,0,0-.24-.66,1.19,1.19,0,0,0-.45-.44,1.54,1.54,0,0,0-.72-.15,1.44,1.44,0,0,0-.67.14,1.16,1.16,0,0,0-.47.41,1.94,1.94,0,0,0-.28.65,3.72,3.72,0,0,0-.09.86,4.251,4.251,0,0,0,.08.83,2.15,2.15,0,0,0,.24.66,1.1,1.1,0,0,0,.45.43,1.41,1.41,0,0,0,.71.16,1.59,1.59,0,0,0,.68-.14,1.16,1.16,0,0,0,.47-.41,1.78,1.78,0,0,0,.28-.64A4.56,4.56,0,0,0,84.58,63.27Z" transform="translate(-1.22 -0.47)" fill="#fff"/>
              <path id="Path_192" data-name="Path 192" d="M93.88,66.31a.16.16,0,0,1,0,.12.24.24,0,0,1-.14.09,1.2,1.2,0,0,1-.26,0h-.83a1.31,1.31,0,0,1-.27,0,.22.22,0,0,1-.13-.09.17.17,0,0,1,0-.12V62.83a3.14,3.14,0,0,0-.06-.69A1.36,1.36,0,0,0,92,61.7a.87.87,0,0,0-.32-.28,1.06,1.06,0,0,0-.45-.1,1.12,1.12,0,0,0-.66.24,3.29,3.29,0,0,0-.7.7v4.05a.21.21,0,0,1,0,.12.28.28,0,0,1-.14.09,1.46,1.46,0,0,1-.27,0h-.83a1.2,1.2,0,0,1-.26,0,.21.21,0,0,1-.14-.09.16.16,0,0,1,0-.12V60.22a.21.21,0,0,1,0-.12.19.19,0,0,1,.12-.09h.95a.9.9,0,0,1,.22,0,.2.2,0,0,1,.11.09.21.21,0,0,1,0,.12v.7a3.91,3.91,0,0,1,1-.82,2.37,2.37,0,0,1,1.09-.27,2.34,2.34,0,0,1,1,.2,1.75,1.75,0,0,1,.69.56,2.06,2.06,0,0,1,.38.82,4.69,4.69,0,0,1,.12,1.14Z" transform="translate(-1.22 -0.47)" fill="#fff"/>
            </g>
            <g id="Group_67" data-name="Group 67" style="isolation: isolate">
              <path id="Path_193" data-name="Path 193" d="M26.21,79.38a.15.15,0,0,1-.06.13l-.15.06h-.56l-.16-.06a.17.17,0,0,1,0-.13v-.61a3.2,3.2,0,0,1-.9.67,2.38,2.38,0,0,1-1.05.24,3,3,0,0,1-.88-.13,1.82,1.82,0,0,1-.67-.37,1.66,1.66,0,0,1-.43-.58,2,2,0,0,1-.15-.8,1.87,1.87,0,0,1,.21-.9,1.77,1.77,0,0,1,.61-.64,3,3,0,0,1,1-.37,5.63,5.63,0,0,1,1.29-.13h.85v-.48a2.35,2.35,0,0,0-.08-.63,1.08,1.08,0,0,0-.24-.45,1.15,1.15,0,0,0-.44-.28,2,2,0,0,0-.65-.09,2.48,2.48,0,0,0-.75.1,4.179,4.179,0,0,0-.58.22,3.921,3.921,0,0,0-.42.22.63.63,0,0,1-.25.1.14.14,0,0,1-.09,0,.3.3,0,0,1-.08-.08.57.57,0,0,1,0-.14,1.15,1.15,0,0,1,0-.19,1.06,1.06,0,0,1,0-.27.36.36,0,0,1,.12-.19,1.34,1.34,0,0,1,.31-.21,4.282,4.282,0,0,1,.52-.22,5.149,5.149,0,0,1,.65-.16,4,4,0,0,1,.7-.06,3.73,3.73,0,0,1,1.13.15,1.74,1.74,0,0,1,.75.44,1.72,1.72,0,0,1,.42.72,3.68,3.68,0,0,1,.13,1Zm-1.12-2.81h-1a3.66,3.66,0,0,0-.8.08,1.66,1.66,0,0,0-.57.23,1,1,0,0,0-.33.37,1.15,1.15,0,0,0-.11.5,1,1,0,0,0,.3.76,1.22,1.22,0,0,0,.86.28,1.58,1.58,0,0,0,.82-.22,3.65,3.65,0,0,0,.8-.69Z" transform="translate(-1.22 -0.47)" fill="#fff"/>
              <path id="Path_194" data-name="Path 194" d="M33.93,79.38a.16.16,0,0,1,0,.09l-.09.06a.61.61,0,0,1-.17,0h-.73a.18.18,0,0,1-.08-.06.16.16,0,0,1,0-.09V75.77a3.72,3.72,0,0,0-.08-.84,2.06,2.06,0,0,0-.24-.56,1.07,1.07,0,0,0-.41-.35,1.21,1.21,0,0,0-.58-.13,1.44,1.44,0,0,0-.84.3,4.38,4.38,0,0,0-.89.89v4.3a.16.16,0,0,1,0,.09l-.09.06a.61.61,0,0,1-.17,0h-.55a.6.6,0,0,1-.18,0l-.09-.06a.29.29,0,0,1,0-.09V73.22a.29.29,0,0,1,0-.09.19.19,0,0,1,.08-.07h.66a.39.39,0,0,1,.15,0,.19.19,0,0,1,.08.07.16.16,0,0,1,0,.09V74a3.92,3.92,0,0,1,1-.86,2.36,2.36,0,0,1,1.05-.26,2.28,2.28,0,0,1,1,.2,1.88,1.88,0,0,1,.68.56,2.2,2.2,0,0,1,.37.82,4.52,4.52,0,0,1,.12,1.12Z" transform="translate(-1.22 -0.47)" fill="#fff"/>
              <path id="Path_195" data-name="Path 195" d="M41.6,79.38a.15.15,0,0,1,0,.09.19.19,0,0,1-.08.07h-.78a.17.17,0,0,1-.09-.07.16.16,0,0,1,0-.09v-.82a4,4,0,0,1-1,.82,2.26,2.26,0,0,1-1.14.3,2.34,2.34,0,0,1-1.16-.27,2,2,0,0,1-.77-.71,3.11,3.11,0,0,1-.44-1A5.84,5.84,0,0,1,36,76.42a5.33,5.33,0,0,1,.18-1.43,3.22,3.22,0,0,1,.5-1.09,2.22,2.22,0,0,1,.83-.69,2.6,2.6,0,0,1,1.15-.24,2,2,0,0,1,1,.23,3.46,3.46,0,0,1,.89.7V70.27a.29.29,0,0,1,0-.09.15.15,0,0,1,.1-.07.61.61,0,0,1,.17,0h.55a.61.61,0,0,1,.17,0,.116.116,0,0,1,.09.16Zm-1.13-4.33a4.49,4.49,0,0,0-.89-.87,1.57,1.57,0,0,0-.89-.29,1.25,1.25,0,0,0-.73.2,1.7,1.7,0,0,0-.49.54,2.84,2.84,0,0,0-.27.76,4.12,4.12,0,0,0-.09.86,5.5,5.5,0,0,0,.08.91,2.61,2.61,0,0,0,.24.79,1.51,1.51,0,0,0,.48.55,1.21,1.21,0,0,0,.73.21,1.61,1.61,0,0,0,.44-.06,1.83,1.83,0,0,0,.43-.2,3.5,3.5,0,0,0,.45-.38,5.89,5.89,0,0,0,.51-.56Z" transform="translate(-1.22 -0.47)" fill="#fff"/>
              <path id="Path_196" data-name="Path 196" d="M52.8,76a.46.46,0,0,1-.13.38.44.44,0,0,1-.31.11h-4a3.77,3.77,0,0,0,.11.93,1.64,1.64,0,0,0,.34.7,1.49,1.49,0,0,0,.62.45,2.42,2.42,0,0,0,.95.16,3.71,3.71,0,0,0,.78-.07,4.43,4.43,0,0,0,.59-.16l.42-.16a.56.56,0,0,1,.24-.07.11.11,0,0,1,.08,0,.13.13,0,0,1,.06.07.25.25,0,0,1,0,.13,1.34,1.34,0,0,1,0,.21v.37a.46.46,0,0,1-.07.07.65.65,0,0,1-.22.13,3.341,3.341,0,0,1-.48.16,4.651,4.651,0,0,1-.68.15,5.218,5.218,0,0,1-.82.07,3.6,3.6,0,0,1-1.33-.22,2.53,2.53,0,0,1-1-.62,2.69,2.69,0,0,1-.59-1,5,5,0,0,1-.2-1.46,4.53,4.53,0,0,1,.21-1.43,3,3,0,0,1,.59-1.07,2.6,2.6,0,0,1,.93-.68,3.06,3.06,0,0,1,1.23-.23,2.87,2.87,0,0,1,1.23.23,2.3,2.3,0,0,1,.84.62,2.5,2.5,0,0,1,.48.93,4.11,4.11,0,0,1,.15,1.13Zm-1.13-.33a2.07,2.07,0,0,0-.4-1.4A1.51,1.51,0,0,0,50,73.8a1.72,1.72,0,0,0-.74.15,1.82,1.82,0,0,0-.53.42,2,2,0,0,0-.33.61,2.86,2.86,0,0,0-.13.72Z" transform="translate(-1.22 -0.47)" fill="#fff"/>
              <path id="Path_197" data-name="Path 197" d="M59.32,79.25a.29.29,0,0,1,.06.16.114.114,0,0,1-.07.1.43.43,0,0,1-.2.06h-.86a.2.2,0,0,1-.11-.06.24.24,0,0,1-.06-.08L56.6,77l-1.47,2.4a.27.27,0,0,1-.07.08.17.17,0,0,1-.1.06h-.82a.38.38,0,0,1-.19-.06s-.06-.06-.05-.1a.29.29,0,0,1,.06-.16l1.92-3-1.82-2.89a.37.37,0,0,1-.05-.16.1.1,0,0,1,.06-.11.43.43,0,0,1,.2-.06h.85a.29.29,0,0,1,.11.06l.06.08,1.4,2.29,1.42-2.29.06-.08h.09a.61.61,0,0,1,.17,0H59a.38.38,0,0,1,.19.06.11.11,0,0,1,.06.1.56.56,0,0,1-.07.17l-1.8,2.86Z" transform="translate(-1.22 -0.47)" fill="#fff"/>
              <path id="Path_198" data-name="Path 198" d="M64.31,78.92a2.45,2.45,0,0,1,0,.32.34.34,0,0,1-.09.17.4.4,0,0,1-.16.1l-.25.08h-.3a1.62,1.62,0,0,1-.31,0,2.45,2.45,0,0,1-.82-.12,1.35,1.35,0,0,1-.56-.39,1.42,1.42,0,0,1-.32-.65,3.6,3.6,0,0,1-.1-.92V74h-.86a.19.19,0,0,1-.17-.11.76.76,0,0,1-.06-.35,1.27,1.27,0,0,1,0-.22q0-.075,0-.15a.2.2,0,0,1,.08-.08.15.15,0,0,1,.09,0h.86V71.58a.29.29,0,0,1,0-.09.35.35,0,0,1,.09-.07h.73a.61.61,0,0,1,.17,0,.35.35,0,0,1,.09.07.16.16,0,0,1,0,.09v1.47H64a.13.13,0,0,1,.09,0,.19.19,0,0,1,.07.08.53.53,0,0,1,0,.15,1.41,1.41,0,0,1,0,.22.76.76,0,0,1-.06.35.17.17,0,0,1-.16.11H62.51v3.43a1.87,1.87,0,0,0,.19,1,.69.69,0,0,0,.67.33,1.2,1.2,0,0,0,.28,0l.22-.07.16-.06h.19a.18.18,0,0,1,0,.07.861.861,0,0,1,0,.13,1.151,1.151,0,0,1,.09.13Z" transform="translate(-1.22 -0.47)" fill="#fff"/>
              <path id="Path_199" data-name="Path 199" d="M71.25,76a.46.46,0,0,1-.13.38.44.44,0,0,1-.31.11h-4a3.79,3.79,0,0,0,.1.93,1.78,1.78,0,0,0,.35.7,1.49,1.49,0,0,0,.62.45,2.4,2.4,0,0,0,.94.16,3.74,3.74,0,0,0,.79-.07,4.9,4.9,0,0,0,.59-.16,4,4,0,0,0,.41-.16.63.63,0,0,1,.25-.07.11.11,0,0,1,.08,0,.13.13,0,0,1,.06.07.42.42,0,0,1,0,.13,1.341,1.341,0,0,1,0,.21V79a.3.3,0,0,1,0,.1.19.19,0,0,1-.06.07.8.8,0,0,1-.22.13,3.341,3.341,0,0,1-.48.16,4.65,4.65,0,0,1-.68.15,5.331,5.331,0,0,1-.82.07,3.6,3.6,0,0,1-1.33-.22,2.53,2.53,0,0,1-1-.62,2.69,2.69,0,0,1-.59-1,5,5,0,0,1-.2-1.46,4.53,4.53,0,0,1,.21-1.43,2.85,2.85,0,0,1,.59-1.07,2.6,2.6,0,0,1,.93-.68,3,3,0,0,1,1.22-.23,2.89,2.89,0,0,1,1.24.23,2.3,2.3,0,0,1,.84.62,2.65,2.65,0,0,1,.48.93,4.11,4.11,0,0,1,.15,1.13Zm-1.13-.33a2.07,2.07,0,0,0-.4-1.4,1.73,1.73,0,0,0-2.5.07,2,2,0,0,0-.33.61,2.48,2.48,0,0,0-.13.72Z" transform="translate(-1.22 -0.47)" fill="#fff"/>
              <path id="Path_200" data-name="Path 200" d="M78.62,79.38a.16.16,0,0,1,0,.09l-.09.06a.61.61,0,0,1-.17,0H77.8a.61.61,0,0,1-.17,0l-.09-.06a.29.29,0,0,1,0-.09V75.77a3.72,3.72,0,0,0-.08-.84,2.06,2.06,0,0,0-.24-.56,1.07,1.07,0,0,0-.41-.35,1.21,1.21,0,0,0-.58-.13,1.49,1.49,0,0,0-.85.3,4.63,4.63,0,0,0-.88.89v4.3a.16.16,0,0,1,0,.09l-.09.06a.61.61,0,0,1-.17,0h-.56a.61.61,0,0,1-.17,0l-.09-.06a.29.29,0,0,1,0-.09V73.22a.15.15,0,0,1,0-.09.19.19,0,0,1,.08-.07h.66a.39.39,0,0,1,.15,0,.19.19,0,0,1,.08.07.16.16,0,0,1,0,.09V74a3.92,3.92,0,0,1,1-.86,2.292,2.292,0,0,1,2-.06,1.88,1.88,0,0,1,.68.56,2.2,2.2,0,0,1,.37.82,4.52,4.52,0,0,1,.12,1.12Z" transform="translate(-1.22 -0.47)" fill="#fff"/>
              <path id="Path_201" data-name="Path 201" d="M86.29,79.38a.15.15,0,0,1,0,.09.19.19,0,0,1-.08.07h-.78s-.08,0-.09-.07a.16.16,0,0,1,0-.09v-.82a4.14,4.14,0,0,1-1,.82,2.26,2.26,0,0,1-1.14.3,2.31,2.31,0,0,1-1.2-.27,2.13,2.13,0,0,1-.78-.71,3.31,3.31,0,0,1-.43-1,6,6,0,0,1,0-2.71,3.43,3.43,0,0,1,.51-1.09,2.22,2.22,0,0,1,.83-.69,2.6,2.6,0,0,1,1.15-.24,2,2,0,0,1,1,.23,3.46,3.46,0,0,1,.89.7V70.27a.29.29,0,0,1,0-.09.15.15,0,0,1,.1-.07.61.61,0,0,1,.17,0h.55a.61.61,0,0,1,.17,0,.116.116,0,0,1,.09.16Zm-1.13-4.33a4.49,4.49,0,0,0-.89-.87,1.57,1.57,0,0,0-.89-.29,1.23,1.23,0,0,0-.73.2,1.7,1.7,0,0,0-.49.54,2.84,2.84,0,0,0-.27.76,4.12,4.12,0,0,0-.09.86,6.84,6.84,0,0,0,.07.91,2.62,2.62,0,0,0,.25.79,1.51,1.51,0,0,0,.48.55,1.21,1.21,0,0,0,.73.21,1.61,1.61,0,0,0,.44-.06,1.83,1.83,0,0,0,.43-.2,3.5,3.5,0,0,0,.45-.38,5.893,5.893,0,0,0,.51-.56Z" transform="translate(-1.22 -0.47)" fill="#fff"/>
              <path id="Path_202" data-name="Path 202" d="M94,76a.46.46,0,0,1-.14.38.41.41,0,0,1-.3.11H89.49a3.79,3.79,0,0,0,.1.93,1.76,1.76,0,0,0,.34.7,1.46,1.46,0,0,0,.63.45,2.4,2.4,0,0,0,.94.16,3.71,3.71,0,0,0,.78-.07,5.1,5.1,0,0,0,.6-.16l.41-.16a.64.64,0,0,1,.24-.07.13.13,0,0,1,.09,0l.06.07a1.3,1.3,0,0,1,0,.13,1.341,1.341,0,0,1,0,.21.81.81,0,0,1,0,.16v.11a.3.3,0,0,1,0,.1l-.06.07a1,1,0,0,1-.22.13,4.471,4.471,0,0,1-.48.16,5,5,0,0,1-.68.15,5.351,5.351,0,0,1-.83.07,3.58,3.58,0,0,1-1.32-.22,2.49,2.49,0,0,1-1-.62,2.67,2.67,0,0,1-.58-1,4.64,4.64,0,0,1-.2-1.46,4.84,4.84,0,0,1,.2-1.43,3,3,0,0,1,.6-1.07,2.44,2.44,0,0,1,.93-.68,3,3,0,0,1,1.22-.23,2.92,2.92,0,0,1,1.24.23,2.35,2.35,0,0,1,.83.62,2.67,2.67,0,0,1,.49.93A4.11,4.11,0,0,1,94,75.83Zm-1.14-.33a2,2,0,0,0-.39-1.4,1.53,1.53,0,0,0-1.24-.5,1.67,1.67,0,0,0-.73.15,1.7,1.7,0,0,0-.53.42,2,2,0,0,0-.33.61,2.48,2.48,0,0,0-.13.72Z" transform="translate(-1.22 -0.47)" fill="#fff"/>
              <path id="Path_203" data-name="Path 203" d="M101.32,79.38a.16.16,0,0,1,0,.09l-.08.07h-.78a.22.22,0,0,1-.09-.07.16.16,0,0,1,0-.09v-.82a4,4,0,0,1-1,.82,2.26,2.26,0,0,1-1.14.3A2.34,2.34,0,0,1,97,79.41a2,2,0,0,1-.77-.71,3.11,3.11,0,0,1-.44-1,5.849,5.849,0,0,1-.13-1.28,5.34,5.34,0,0,1,.17-1.43,3.22,3.22,0,0,1,.5-1.09,2.22,2.22,0,0,1,.83-.69,2.6,2.6,0,0,1,1.15-.24,2,2,0,0,1,1,.23,3.46,3.46,0,0,1,.89.7V70.27a.29.29,0,0,1,0-.09.15.15,0,0,1,.1-.07.61.61,0,0,1,.17,0h.55a.61.61,0,0,1,.17,0,.16.16,0,0,1,.09.07.18.18,0,0,1,0,.09Zm-1.14-4.33a4.24,4.24,0,0,0-.89-.87,1.57,1.57,0,0,0-.89-.29,1.25,1.25,0,0,0-.73.2,1.7,1.7,0,0,0-.49.54,2.84,2.84,0,0,0-.27.76,4.12,4.12,0,0,0-.09.86,5.5,5.5,0,0,0,.08.91,2.36,2.36,0,0,0,.25.79,1.4,1.4,0,0,0,.47.55,1.22,1.22,0,0,0,.74.21,1.54,1.54,0,0,0,.43-.06,1.83,1.83,0,0,0,.43-.2,3.5,3.5,0,0,0,.45-.38,5.889,5.889,0,0,0,.51-.56Z" transform="translate(-1.22 -0.47)" fill="#fff"/>
            </g>
            <g id="Group_68" data-name="Group 68" style="isolation: isolate">
              <path id="Path_204" data-name="Path 204" d="M32.3,90.7a2,2,0,0,1-.17.84,1.68,1.68,0,0,1-.5.62,2.28,2.28,0,0,1-.76.39,3.749,3.749,0,0,1-1,.13,3.211,3.211,0,0,1-.63-.06,3.77,3.77,0,0,1-.53-.12,3.2,3.2,0,0,1-.4-.17l-.24-.15A.5.5,0,0,1,28,92a1.58,1.58,0,0,1,0-.34,1.41,1.41,0,0,1,0-.22.39.39,0,0,1,0-.14.16.16,0,0,1,.05-.08.15.15,0,0,1,.09,0,.5.5,0,0,1,.22.09l.36.2a4.182,4.182,0,0,0,.51.2,2.33,2.33,0,0,0,.68.09,2.12,2.12,0,0,0,.52-.06,1.22,1.22,0,0,0,.4-.18.86.86,0,0,0,.27-.3,1,1,0,0,0,.09-.44.79.79,0,0,0-.13-.44A1.23,1.23,0,0,0,30.7,90a3.721,3.721,0,0,0-.49-.25l-.56-.22a3.68,3.68,0,0,1-.57-.26,2.54,2.54,0,0,1-.5-.36,1.71,1.71,0,0,1-.35-.51,1.65,1.65,0,0,1-.13-.7,1.81,1.81,0,0,1,.14-.69,1.49,1.49,0,0,1,.42-.58,2.07,2.07,0,0,1,.7-.4,2.93,2.93,0,0,1,1-.15,2.7,2.7,0,0,1,.49,0,2.51,2.51,0,0,1,.45.1,2.2,2.2,0,0,1,.34.13l.21.13a.25.25,0,0,1,.09.09.3.3,0,0,1,0,.1.74.74,0,0,0,0,.12c0,.05,0,.11,0,.19v.2a.47.47,0,0,1,0,.14.16.16,0,0,1-.05.08h-.08a.38.38,0,0,1-.18-.07,1.35,1.35,0,0,0-.3-.16,3,3,0,0,0-.43-.16,2.129,2.129,0,0,0-1.08-.02,1.23,1.23,0,0,0-.36.19.83.83,0,0,0-.21.28.86.86,0,0,0-.07.36.67.67,0,0,0,.14.45,1.18,1.18,0,0,0,.35.31,2.34,2.34,0,0,0,.5.25l.57.23a4.17,4.17,0,0,1,.57.26,2.27,2.27,0,0,1,.51.34,1.8,1.8,0,0,1,.35.5A1.59,1.59,0,0,1,32.3,90.7Z" transform="translate(-1.22 -0.47)" fill="#fff"/>
              <path id="Path_205" data-name="Path 205" d="M38.69,91.44a1.21,1.21,0,0,1,0,.2.46.46,0,0,1,0,.14s0,.08,0,.11l-.11.13-.29.21a2.8,2.8,0,0,1-.46.22,3.3,3.3,0,0,1-.56.16,2.56,2.56,0,0,1-.62.07,3.07,3.07,0,0,1-1.18-.22,2.29,2.29,0,0,1-.86-.64,2.94,2.94,0,0,1-.52-1,5.05,5.05,0,0,1-.18-1.42,4.85,4.85,0,0,1,.22-1.56,3,3,0,0,1,.61-1.07,2.38,2.38,0,0,1,.91-.62,3.15,3.15,0,0,1,1.13-.2,2.76,2.76,0,0,1,.57.06,2.729,2.729,0,0,1,.51.14,2.25,2.25,0,0,1,.41.21,1.34,1.34,0,0,1,.26.19l.12.13.05.12a.59.59,0,0,1,0,.14,1.34,1.34,0,0,1,0,.21.8.8,0,0,1-.06.37.18.18,0,0,1-.15.11.39.39,0,0,1-.24-.12l-.33-.25a2.59,2.59,0,0,0-.5-.24,1.78,1.78,0,0,0-.69-.12,1.4,1.4,0,0,0-1.24.63A3.16,3.16,0,0,0,35,89.31a4.48,4.48,0,0,0,.11,1,2.16,2.16,0,0,0,.34.75,1.35,1.35,0,0,0,.53.45,1.7,1.7,0,0,0,.73.15,1.76,1.76,0,0,0,.68-.12,3.941,3.941,0,0,0,.51-.27l.37-.27a.4.4,0,0,1,.22-.12.14.14,0,0,1,.09,0,.19.19,0,0,1,0,.09.62.62,0,0,1,0,.16A1.77,1.77,0,0,1,38.69,91.44Z" transform="translate(-1.22 -0.47)" fill="#fff"/>
              <path id="Path_206" data-name="Path 206" d="M45.83,92.38a.29.29,0,0,1,0,.09l-.09.06a.61.61,0,0,1-.17,0h-.56a.61.61,0,0,1-.17,0l-.09-.06a.29.29,0,0,1,0-.09V88.77a3.16,3.16,0,0,0-.09-.84,1.58,1.58,0,0,0-.24-.56A1,1,0,0,0,44,87a1.21,1.21,0,0,0-.58-.13,1.49,1.49,0,0,0-.85.3,4.65,4.65,0,0,0-.89.89v4.3a.29.29,0,0,1,0,.09l-.09.06a.61.61,0,0,1-.17,0h-.56a.61.61,0,0,1-.17,0l-.09-.06a.15.15,0,0,1,0-.09V83.24a.13.13,0,0,1,0-.09.22.22,0,0,1,.09-.07.61.61,0,0,1,.17,0h.56a.61.61,0,0,1,.17,0,.22.22,0,0,1,.09.07.24.24,0,0,1,0,.09v3.69a3.62,3.62,0,0,1,1-.76,2.14,2.14,0,0,1,1-.25,2.33,2.33,0,0,1,1,.2,1.88,1.88,0,0,1,.68.56,2.2,2.2,0,0,1,.37.82,4.65,4.65,0,0,1,.11,1.13Z" transform="translate(-1.22 -0.47)" fill="#fff"/>
              <path id="Path_207" data-name="Path 207" d="M54,89.23a4.34,4.34,0,0,1-.2,1.38,2.92,2.92,0,0,1-.59,1.1,2.72,2.72,0,0,1-1,.71,3.45,3.45,0,0,1-1.37.26,3.5,3.5,0,0,1-1.32-.23,2.36,2.36,0,0,1-.94-.66,2.67,2.67,0,0,1-.56-1A5.05,5.05,0,0,1,48,88a3,3,0,0,1,.58-1.09,2.69,2.69,0,0,1,1-.71A3.47,3.47,0,0,1,51,85.92a3.55,3.55,0,0,1,1.32.22,2.36,2.36,0,0,1,.94.66,2.67,2.67,0,0,1,.56,1A4.63,4.63,0,0,1,54,89.23Zm-1.17.08a4.79,4.79,0,0,0-.09-1,2.24,2.24,0,0,0-.31-.78,1.49,1.49,0,0,0-.58-.53,1.89,1.89,0,0,0-.91-.19A1.91,1.91,0,0,0,50,87a1.52,1.52,0,0,0-.6.5,2.48,2.48,0,0,0-.35.77,4.17,4.17,0,0,0-.11,1,4.79,4.79,0,0,0,.09,1,2.45,2.45,0,0,0,.31.78,1.57,1.57,0,0,0,.59.52,1.89,1.89,0,0,0,.91.2,1.94,1.94,0,0,0,.86-.18,1.71,1.71,0,0,0,.6-.5,2,2,0,0,0,.34-.77,3.69,3.69,0,0,0,.15-1.01Z" transform="translate(-1.22 -0.47)" fill="#fff"/>
              <path id="Path_208" data-name="Path 208" d="M61.7,89.23a4.65,4.65,0,0,1-.2,1.38,3.06,3.06,0,0,1-.59,1.1,2.76,2.76,0,0,1-1,.71,3.42,3.42,0,0,1-1.37.26,3.54,3.54,0,0,1-1.32-.23,2.36,2.36,0,0,1-.94-.66,2.67,2.67,0,0,1-.56-1,5,5,0,0,1-.19-1.4,4.65,4.65,0,0,1,.2-1.38,2.87,2.87,0,0,1,.59-1.09,2.61,2.61,0,0,1,1-.71,3.42,3.42,0,0,1,1.37-.25,3.51,3.51,0,0,1,1.32.22,2.36,2.36,0,0,1,.94.66,2.82,2.82,0,0,1,.57,1,5,5,0,0,1,.18,1.39Zm-1.17.08a4.13,4.13,0,0,0-.1-1,2.44,2.44,0,0,0-.3-.78,1.64,1.64,0,0,0-.58-.53,2.23,2.23,0,0,0-1.78,0,1.52,1.52,0,0,0-.6.5,2.26,2.26,0,0,0-.34.77,3.68,3.68,0,0,0-.12,1,4.13,4.13,0,0,0,.1,1,2.24,2.24,0,0,0,.31.78,1.54,1.54,0,0,0,.58.52,2.16,2.16,0,0,0,1.77,0,1.55,1.55,0,0,0,.6-.5,2.18,2.18,0,0,0,.35-.77,4.17,4.17,0,0,0,.11-.99Z" transform="translate(-1.22 -0.47)" fill="#fff"/>
              <path id="Path_209" data-name="Path 209" d="M64.83,92.38a.15.15,0,0,1,0,.09l-.09.06a.61.61,0,0,1-.17,0h-.56a.61.61,0,0,1-.17,0l-.09-.06a.15.15,0,0,1,0-.09V83.24a.13.13,0,0,1,0-.09.22.22,0,0,1,.09-.07A.61.61,0,0,1,64,83h.56a.61.61,0,0,1,.17,0,.22.22,0,0,1,.09.07.13.13,0,0,1,0,.09Z" transform="translate(-1.22 -0.47)" fill="#fff"/>
              <path id="Path_210" data-name="Path 210" d="M76.06,92.38a.16.16,0,0,1,0,.09l-.08.07H75.2a.22.22,0,0,1-.09-.07.16.16,0,0,1,0-.09v-.82a4,4,0,0,1-1,.82,2.26,2.26,0,0,1-1.14.3,2.34,2.34,0,0,1-1.16-.27A2,2,0,0,1,71,91.7a3.11,3.11,0,0,1-.44-1,5.85,5.85,0,0,1-.13-1.28,5.34,5.34,0,0,1,.17-1.43,3.22,3.22,0,0,1,.5-1.09,2.22,2.22,0,0,1,.83-.69,2.6,2.6,0,0,1,1.15-.24,2.06,2.06,0,0,1,1,.23,3.6,3.6,0,0,1,.88.7V83.27a.29.29,0,0,1,0-.09.2.2,0,0,1,.1-.07.61.61,0,0,1,.17,0h.55a.61.61,0,0,1,.17,0,.22.22,0,0,1,.09.07.18.18,0,0,1,0,.09Zm-1.14-4.33a4.47,4.47,0,0,0-.88-.87,1.63,1.63,0,0,0-.9-.29,1.25,1.25,0,0,0-.73.2,1.7,1.7,0,0,0-.49.54,2.84,2.84,0,0,0-.27.76,4.12,4.12,0,0,0-.09.86,5.5,5.5,0,0,0,.08.91,2.36,2.36,0,0,0,.25.79,1.4,1.4,0,0,0,.47.55,1.22,1.22,0,0,0,.74.21,1.54,1.54,0,0,0,.43-.06,1.831,1.831,0,0,0,.43-.2,4.351,4.351,0,0,0,.46-.38c.15-.15.32-.34.5-.56Z" transform="translate(-1.22 -0.47)" fill="#fff"/>
              <path id="Path_211" data-name="Path 211" d="M83.13,92.38a.15.15,0,0,1-.06.13l-.15.06h-.56l-.16-.06a.17.17,0,0,1,0-.13v-.61a3.07,3.07,0,0,1-.9.67,2.33,2.33,0,0,1-1,.24,3,3,0,0,1-.88-.13,1.82,1.82,0,0,1-.67-.37,1.55,1.55,0,0,1-.43-.58,1.87,1.87,0,0,1-.16-.8,1.77,1.77,0,0,1,.22-.9,1.83,1.83,0,0,1,.6-.64,3.17,3.17,0,0,1,1-.37,5.78,5.78,0,0,1,1.3-.13H82v-.48a2.38,2.38,0,0,0-.07-.63,1.08,1.08,0,0,0-.24-.45,1.23,1.23,0,0,0-.44-.28,2,2,0,0,0-.65-.09,2.48,2.48,0,0,0-.75.1,4.18,4.18,0,0,0-.58.22,3.921,3.921,0,0,0-.42.22.7.7,0,0,1-.25.1.17.17,0,0,1-.1,0l-.07-.08a.57.57,0,0,1,0-.14,1.11,1.11,0,0,1,0-.19,1,1,0,0,1,0-.27.34.34,0,0,1,.11-.19,1.76,1.76,0,0,1,.32-.21,4.278,4.278,0,0,1,.52-.22A5.439,5.439,0,0,1,80,86a4.25,4.25,0,0,1,.71-.06,3.73,3.73,0,0,1,1.13.15,1.74,1.74,0,0,1,.75.44,1.72,1.72,0,0,1,.42.72,3.68,3.68,0,0,1,.13,1ZM82,89.57H81a3.829,3.829,0,0,0-.81.08,1.6,1.6,0,0,0-.56.23,1.18,1.18,0,0,0-.34.37,1.15,1.15,0,0,0-.1.5,1,1,0,0,0,.3.76,1.21,1.21,0,0,0,.85.28,1.61,1.61,0,0,0,.83-.22,3.41,3.41,0,0,0,.79-.69Z" transform="translate(-1.22 -0.47)" fill="#fff"/>
              <path id="Path_212" data-name="Path 212" d="M88.09,92.55l-.82,2.26a.34.34,0,0,1-.21.17,2.05,2.05,0,0,1-.51,0h-.29a.3.3,0,0,1-.16.02.16.16,0,0,1-.07-.11.34.34,0,0,1,0-.16l.84-2.14a.31.31,0,0,1-.11-.09.46.46,0,0,1-.08-.13l-2.19-5.88a.65.65,0,0,1-.06-.23.18.18,0,0,1,.06-.13.31.31,0,0,1,.18-.06L85,86h.51a.2.2,0,0,1,.1.08.64.64,0,0,1,.06.14l1.76,4.93h0l1.7-5a.27.27,0,0,1,.1-.17.43.43,0,0,1,.17,0h.65a.38.38,0,0,1,.18.06.18.18,0,0,1,.06.13,1,1,0,0,1,0,.21Z" transform="translate(-1.22 -0.47)" fill="#fff"/>
              <path id="Path_213" data-name="Path 213" d="M94.18,91.84a1.9,1.9,0,0,1,0,.37.46.46,0,0,1-.12.24.48.48,0,0,1-.22.13,1.69,1.69,0,0,1-.35,0,1.75,1.75,0,0,1-.35,0,.48.48,0,0,1-.22-.13.45.45,0,0,1-.11-.24,1.9,1.9,0,0,1,0-.37,1.94,1.94,0,0,1,0-.38.39.39,0,0,1,.11-.24.48.48,0,0,1,.22-.13,1.75,1.75,0,0,1,.35,0,1.69,1.69,0,0,1,.35,0,.48.48,0,0,1,.22.13.39.39,0,0,1,.12.24A1.94,1.94,0,0,1,94.18,91.84ZM94,90a.29.29,0,0,1,0,.09.22.22,0,0,1-.09.07.53.53,0,0,1-.16,0h-.63a.22.22,0,0,1-.09-.07A.29.29,0,0,1,93,90l-.12-6.53a.32.32,0,0,1,0-.14.24.24,0,0,1,.1-.1.47.47,0,0,1,.19-.06h.62a.69.69,0,0,1,.19.07.19.19,0,0,1,.1.1.25.25,0,0,1,0,.13Z" transform="translate(-1.22 -0.47)" fill="#fff"/>
            </g>
          </g>
          <rect id="Rectangle_23" data-name="Rectangle 23" width="79.28" height="18" transform="translate(21 121.86)" fill="#8c7345"/>
          <rect id="Rectangle_79" data-name="Rectangle 79" width="96.45" height="18" transform="translate(12 103.86)" fill="#c7ab76"/>
          <g id="ADMISSIONS_NOW_OPEN" data-name="ADMISSIONS NOW OPEN" style="isolation: isolate">
            <g id="Group_69" data-name="Group 69" style="isolation: isolate">
              <path id="Path_214" data-name="Path 214" d="M30.39,117.66a2.43,2.43,0,0,1,.11.39.24.24,0,0,1-.06.21.43.43,0,0,1-.27.09H29.1a1.549,1.549,0,0,1-.29,0,.27.27,0,0,1-.15-.09.6.6,0,0,1-.07-.14L28,116.31H24.68L24.12,118a.59.59,0,0,1-.07.16.28.28,0,0,1-.15.1.67.67,0,0,1-.28,0h-.97a.41.41,0,0,1-.24-.1.26.26,0,0,1-.05-.22,2.23,2.23,0,0,1,.1-.39l2.73-7.84a.67.67,0,0,1,.1-.19.27.27,0,0,1,.17-.11,1.279,1.279,0,0,1,.33,0H27a1.651,1.651,0,0,1,.37,0,.32.32,0,0,1,.19.11.69.69,0,0,1,.1.21Zm-4.06-6.49h0l-1.26,3.76h2.51Z" transform="translate(-1.22 -0.47)" fill="#fff"/>
              <path id="Path_215" data-name="Path 215" d="M39.26,113.77a6.12,6.12,0,0,1-.32,2.09,3.66,3.66,0,0,1-.91,1.41,3.72,3.72,0,0,1-1.45.8,7.08,7.08,0,0,1-2,.26H32.44a.57.57,0,0,1-.38-.14.55.55,0,0,1-.15-.43v-7.71a.57.57,0,0,1,.15-.44.62.62,0,0,1,.38-.13h2.27a6.21,6.21,0,0,1,2,.28,3.64,3.64,0,0,1,1.39.82,3.5,3.5,0,0,1,.85,1.34,5.28,5.28,0,0,1,.31,1.85Zm-1.86.07a4.36,4.36,0,0,0-.15-1.17,2.52,2.52,0,0,0-.47-.94,2.27,2.27,0,0,0-.83-.62,3.38,3.38,0,0,0-1.34-.22H33.7v6h.94a3.46,3.46,0,0,0,1.24-.2,2.09,2.09,0,0,0,.85-.57,2.58,2.58,0,0,0,.5-1,4.9,4.9,0,0,0,.17-1.28Z" transform="translate(-1.22 -0.47)" fill="#fff"/>
              <path id="Path_216" data-name="Path 216" d="M51.32,118.08a.21.21,0,0,1,0,.12.24.24,0,0,1-.14.09,1.259,1.259,0,0,1-.26.06h-.83a1.121,1.121,0,0,1-.26-.06.28.28,0,0,1-.14-.09.21.21,0,0,1,0-.12v-7.2h0L47,118.07a.28.28,0,0,1-.08.15.46.46,0,0,1-.17.09.93.93,0,0,1-.27,0h-.79a1.459,1.459,0,0,1-.27,0,.45.45,0,0,1-.17-.1.22.22,0,0,1-.08-.13l-2.48-7.19h0v7.2a.21.21,0,0,1,0,.12.24.24,0,0,1-.14.09,1.43,1.43,0,0,1-.26.06h-.83a1.26,1.26,0,0,1-.26-.06.24.24,0,0,1-.14-.09.21.21,0,0,1,0-.12V110.2a.72.72,0,0,1,.18-.53.64.64,0,0,1,.49-.19h1.18a2.761,2.761,0,0,1,.54,0,1.15,1.15,0,0,1,.39.17.94.94,0,0,1,.27.32,2.18,2.18,0,0,1,.19.48l1.92,5.27h0l2-5.26a2.82,2.82,0,0,1,.19-.48,1,1,0,0,1,.25-.32.88.88,0,0,1,.33-.18,1.9,1.9,0,0,1,.44,0h1.21a1,1,0,0,1,.32,0,.55.55,0,0,1,.22.14.58.58,0,0,1,.13.23.91.91,0,0,1,0,.3Z" transform="translate(-1.22 -0.47)" fill="#fff"/>
              <path id="Path_217" data-name="Path 217" d="M55.34,118.08a.17.17,0,0,1-.05.12.27.27,0,0,1-.15.09,1.22,1.22,0,0,1-.27.06H54a1.33,1.33,0,0,1-.28-.06.24.24,0,0,1-.14-.09.17.17,0,0,1,0-.12v-8.35a.21.21,0,0,1,0-.13.35.35,0,0,1,.15-.08.9.9,0,0,1,.27-.06h.87a.83.83,0,0,1,.27.06.35.35,0,0,1,.15.08.21.21,0,0,1,.05.13Z" transform="translate(-1.22 -0.47)" fill="#fff"/>
              <path id="Path_218" data-name="Path 218" d="M62.79,115.68a2.77,2.77,0,0,1-.26,1.22,2.65,2.65,0,0,1-.71.88,3.09,3.09,0,0,1-1,.53,4.33,4.33,0,0,1-1.27.17,4.57,4.57,0,0,1-.85-.07,4.9,4.9,0,0,1-.69-.18,3.51,3.51,0,0,1-.5-.22,1.48,1.48,0,0,1-.3-.21.53.53,0,0,1-.12-.26,2,2,0,0,1,0-.48c0-.14,0-.26,0-.35a1.11,1.11,0,0,1,0-.24.28.28,0,0,1,.08-.12.19.19,0,0,1,.12,0,.65.65,0,0,1,.27.11,4.3,4.3,0,0,0,.45.25,3.69,3.69,0,0,0,.65.25,2.93,2.93,0,0,0,.88.12,2.16,2.16,0,0,0,.59-.08,1.41,1.41,0,0,0,.44-.23,1,1,0,0,0,.28-.35,1.19,1.19,0,0,0,.09-.47.83.83,0,0,0-.16-.52,1.77,1.77,0,0,0-.43-.38,5.573,5.573,0,0,0-.6-.32l-.69-.31a5.7,5.7,0,0,1-.69-.37,2.85,2.85,0,0,1-.6-.5,2.16,2.16,0,0,1-.42-.69,2.71,2.71,0,0,1,.07-2.06A2.18,2.18,0,0,1,58,110a2.83,2.83,0,0,1,.95-.48,4.26,4.26,0,0,1,1.15-.16,4.458,4.458,0,0,1,.63.05,4.52,4.52,0,0,1,.58.13,3.351,3.351,0,0,1,.49.19,1.17,1.17,0,0,1,.28.17.27.27,0,0,1,.09.11.5.5,0,0,1,0,.13c0,.05,0,.12,0,.2v.3a3.22,3.22,0,0,1,0,.33.75.75,0,0,1,0,.23.32.32,0,0,1-.07.13.21.21,0,0,1-.12,0,.52.52,0,0,1-.24-.1l-.4-.21a4.3,4.3,0,0,0-.55-.2,2.5,2.5,0,0,0-.69-.09,1.64,1.64,0,0,0-.52.07,1,1,0,0,0-.36.2.73.73,0,0,0-.22.3,1,1,0,0,0-.07.38.79.79,0,0,0,.16.5,1.36,1.36,0,0,0,.43.39,4.94,4.94,0,0,0,.61.31l.7.31a6.659,6.659,0,0,1,.69.38,2.67,2.67,0,0,1,.61.5,2.25,2.25,0,0,1,.43.68,2.38,2.38,0,0,1,.23.93Z" transform="translate(-1.22 -0.47)" fill="#fff"/>
              <path id="Path_219" data-name="Path 219" d="M69.68,115.68a2.64,2.64,0,0,1-.26,1.22,2.51,2.51,0,0,1-.7.88,3.19,3.19,0,0,1-1,.53,4.38,4.38,0,0,1-1.27.17,4.5,4.5,0,0,1-.85-.07,5.469,5.469,0,0,1-.7-.18,4.1,4.1,0,0,1-.5-.22,1.69,1.69,0,0,1-.29-.21.45.45,0,0,1-.12-.26,2,2,0,0,1,0-.48v-.35a1.11,1.11,0,0,1,0-.24.21.21,0,0,1,.08-.12.16.16,0,0,1,.12,0,.65.65,0,0,1,.27.11,3.271,3.271,0,0,0,.44.25,4.151,4.151,0,0,0,.66.25,2.88,2.88,0,0,0,.88.12A2.08,2.08,0,0,0,67,117a1.471,1.471,0,0,0,.45-.23.85.85,0,0,0,.27-.35,1,1,0,0,0,.1-.47.83.83,0,0,0-.17-.52,1.72,1.72,0,0,0-.42-.38,5.57,5.57,0,0,0-.6-.32l-.69-.31a5.7,5.7,0,0,1-.69-.37,2.42,2.42,0,0,1-.6-.5,2.18,2.18,0,0,1-.43-.69,2.45,2.45,0,0,1-.16-.95,2.59,2.59,0,0,1,.23-1.11,2.2,2.2,0,0,1,.64-.8,2.88,2.88,0,0,1,.94-.48,4.37,4.37,0,0,1,1.15-.16,4.459,4.459,0,0,1,.63.05,4.68,4.68,0,0,1,.59.13,3.871,3.871,0,0,1,.49.19,1.17,1.17,0,0,1,.28.17l.09.11a.5.5,0,0,1,0,.13,1,1,0,0,1,0,.2,2.631,2.631,0,0,1,0,.3,3.217,3.217,0,0,1,0,.33v.23a.32.32,0,0,1-.07.13.21.21,0,0,1-.12,0,.52.52,0,0,1-.24-.1l-.4-.21a4.479,4.479,0,0,0-.56-.2,2.5,2.5,0,0,0-.69-.09,1.61,1.61,0,0,0-.51.07,1,1,0,0,0-.37.2.71.71,0,0,0-.21.3,1,1,0,0,0-.08.38.85.85,0,0,0,.16.5,1.48,1.48,0,0,0,.43.39,5.107,5.107,0,0,0,.62.31l.69.31a6.8,6.8,0,0,1,.7.38,2.67,2.67,0,0,1,.61.5,2.25,2.25,0,0,1,.43.68,2.38,2.38,0,0,1,.19.93Z" transform="translate(-1.22 -0.47)" fill="#fff"/>
              <path id="Path_220" data-name="Path 220" d="M73.14,118.08a.16.16,0,0,1,0,.12.27.27,0,0,1-.15.09,1.37,1.37,0,0,1-.27.06h-.87a1.33,1.33,0,0,1-.28-.06.27.27,0,0,1-.15-.09.16.16,0,0,1,0-.12v-8.35a.2.2,0,0,1,0-.13.35.35,0,0,1,.15-.08,1,1,0,0,1,.28-.06h.87a.9.9,0,0,1,.27.06.35.35,0,0,1,.15.08.2.2,0,0,1,0,.13Z" transform="translate(-1.22 -0.47)" fill="#fff"/>
              <path id="Path_221" data-name="Path 221" d="M83.31,113.8a6.29,6.29,0,0,1-.28,2,3.88,3.88,0,0,1-.81,1.47,3.48,3.48,0,0,1-1.34.93,5,5,0,0,1-1.84.31,5.41,5.41,0,0,1-1.8-.27,3.11,3.11,0,0,1-1.28-.82,3.55,3.55,0,0,1-.77-1.41,7.08,7.08,0,0,1-.26-2,6.08,6.08,0,0,1,.28-1.93,3.92,3.92,0,0,1,.81-1.46,3.53,3.53,0,0,1,1.34-.92,4.78,4.78,0,0,1,1.85-.33,5.31,5.31,0,0,1,1.77.27,3.11,3.11,0,0,1,1.28.82,3.47,3.47,0,0,1,.78,1.4,6.56,6.56,0,0,1,.27,1.94Zm-1.89.1a7,7,0,0,0-.11-1.27,2.78,2.78,0,0,0-.37-1,1.85,1.85,0,0,0-.7-.63,2.53,2.53,0,0,0-1.1-.22,2.16,2.16,0,0,0-1.1.25,2,2,0,0,0-.72.67,2.9,2.9,0,0,0-.39,1,6.39,6.39,0,0,0-.11,1.18,7.251,7.251,0,0,0,.11,1.3,2.76,2.76,0,0,0,.37,1,1.71,1.71,0,0,0,.7.63,2.51,2.51,0,0,0,1.1.21,2.27,2.27,0,0,0,1.1-.24,2,2,0,0,0,.72-.67,3.11,3.11,0,0,0,.39-1,6.609,6.609,0,0,0,.11-1.21Z" transform="translate(-1.22 -0.47)" fill="#fff"/>
              <path id="Path_222" data-name="Path 222" d="M92.39,117.7a.82.82,0,0,1,0,.28.62.62,0,0,1-.15.2.43.43,0,0,1-.22.12.73.73,0,0,1-.25,0H91a1.24,1.24,0,0,1-.41,0,.87.87,0,0,1-.33-.17,2,2,0,0,1-.28-.34c-.09-.15-.19-.33-.31-.56l-2.2-4.14c-.13-.24-.25-.51-.39-.79a8.205,8.205,0,0,1-.35-.83h0v6.62a.2.2,0,0,1,0,.13.36.36,0,0,1-.13.09l-.25.06h-.8l-.24-.06a.48.48,0,0,1-.13-.09.28.28,0,0,1,0-.13v-7.95a.59.59,0,0,1,.19-.48.71.71,0,0,1,.46-.16h1a1.84,1.84,0,0,1,.44,0,.92.92,0,0,1,.32.14,1.24,1.24,0,0,1,.26.29,3.448,3.448,0,0,1,.25.44l1.73,3.24c.1.19.2.39.29.58s.2.37.29.56l.26.56c.09.18.17.36.26.55h0v-6.15a.21.21,0,0,1,0-.12.39.39,0,0,1,.14-.1.76.76,0,0,1,.25-.06h.8a.7.7,0,0,1,.24.06.31.31,0,0,1,.12.1.21.21,0,0,1,0,.12Z" transform="translate(-1.22 -0.47)" fill="#fff"/>
              <path id="Path_223" data-name="Path 223" d="M99.84,115.68a2.64,2.64,0,0,1-.26,1.22,2.51,2.51,0,0,1-.7.88,3.19,3.19,0,0,1-1,.53,4.38,4.38,0,0,1-1.27.17,4.5,4.5,0,0,1-.85-.07,5.069,5.069,0,0,1-.7-.18,4.1,4.1,0,0,1-.5-.22,1.69,1.69,0,0,1-.29-.21.53.53,0,0,1-.13-.26,2.88,2.88,0,0,1,0-.48c0-.14,0-.26,0-.35a.72.72,0,0,1,0-.24.21.21,0,0,1,.08-.12.16.16,0,0,1,.12,0,.65.65,0,0,1,.27.11,3.272,3.272,0,0,0,.44.25,3.809,3.809,0,0,0,.66.25,2.88,2.88,0,0,0,.88.12,2.08,2.08,0,0,0,.58-.08,1.31,1.31,0,0,0,.44-.23.87.87,0,0,0,.28-.35,1,1,0,0,0,.1-.47.83.83,0,0,0-.17-.52,1.72,1.72,0,0,0-.42-.38,5.57,5.57,0,0,0-.6-.32c-.23-.09-.46-.2-.69-.31a5.7,5.7,0,0,1-.69-.37,2.42,2.42,0,0,1-.6-.5,2.18,2.18,0,0,1-.43-.69,2.45,2.45,0,0,1-.16-.95,2.59,2.59,0,0,1,.23-1.11,2.2,2.2,0,0,1,.64-.8,2.88,2.88,0,0,1,.94-.48,4.32,4.32,0,0,1,1.15-.16,4.459,4.459,0,0,1,.63.05,4.68,4.68,0,0,1,.59.13,3.87,3.87,0,0,1,.49.19,1.17,1.17,0,0,1,.28.17l.09.11v.13a1,1,0,0,1,0,.2,2.631,2.631,0,0,1,0,.3,3.217,3.217,0,0,1,0,.33v.23a.32.32,0,0,1-.07.13.21.21,0,0,1-.12,0,.52.52,0,0,1-.24-.1l-.4-.21a4.481,4.481,0,0,0-.56-.2,2.5,2.5,0,0,0-.69-.09,1.57,1.57,0,0,0-.51.07,1,1,0,0,0-.37.2.73.73,0,0,0-.22.3,1.17,1.17,0,0,0-.07.38.85.85,0,0,0,.16.5,1.48,1.48,0,0,0,.43.39,5.109,5.109,0,0,0,.62.31l.69.31a6.8,6.8,0,0,1,.7.38,2.67,2.67,0,0,1,.61.5,2.25,2.25,0,0,1,.43.68,2.38,2.38,0,0,1,.18.93Z" transform="translate(-1.22 -0.47)" fill="#fff"/>
            </g>
            <g id="Group_70" data-name="Group 70" style="isolation: isolate">
              <path id="Path_224" data-name="Path 224" d="M34.83,135.67a.61.61,0,0,1-.06.28.62.62,0,0,1-.15.21.66.66,0,0,1-.22.12,1.069,1.069,0,0,1-.25,0h-.77a1.68,1.68,0,0,1-.41,0,.85.85,0,0,1-.32-.18,1.71,1.71,0,0,1-.29-.34,5.352,5.352,0,0,1-.3-.56l-2.2-4.13c-.13-.25-.26-.51-.39-.8s-.25-.56-.36-.83h0v6.63a.23.23,0,0,1-.17.21.7.7,0,0,1-.25.06h-.8a.7.7,0,0,1-.24-.06.23.23,0,0,1-.16-.21v-8a.6.6,0,0,1,.19-.49.71.71,0,0,1,.46-.16h1a1.78,1.78,0,0,1,.44,0,.86.86,0,0,1,.32.15,1,1,0,0,1,.26.28,3,3,0,0,1,.26.45l1.72,3.23.3.58.28.57.27.55c.08.19.17.37.25.55h0v-6.15a.17.17,0,0,1,0-.12.28.28,0,0,1,.13-.1,1.259,1.259,0,0,1,.26-.06h.79a1,1,0,0,1,.24.06.26.26,0,0,1,.16.22Z" transform="translate(-1.22 -0.47)" fill="#fff"/>
              <path id="Path_225" data-name="Path 225" d="M45,131.77a6.61,6.61,0,0,1-.27,2,4.17,4.17,0,0,1-.82,1.48,3.49,3.49,0,0,1-1.33.92,5,5,0,0,1-1.85.32,5.5,5.5,0,0,1-1.8-.27,3.13,3.13,0,0,1-1.28-.83,3.58,3.58,0,0,1-.77-1.4,7.18,7.18,0,0,1-.25-2,6.43,6.43,0,0,1,.27-1.93,3.92,3.92,0,0,1,.81-1.46,3.53,3.53,0,0,1,1.34-.92,4.81,4.81,0,0,1,1.85-.32,5.59,5.59,0,0,1,1.77.26,3.21,3.21,0,0,1,1.29.82,3.72,3.72,0,0,1,.78,1.4,7,7,0,0,1,.26,1.93Zm-1.89.1A6.26,6.26,0,0,0,43,130.6a2.67,2.67,0,0,0-.37-1,1.68,1.68,0,0,0-.7-.62,2.38,2.38,0,0,0-1.09-.23,2.31,2.31,0,0,0-1.11.25,2,2,0,0,0-.72.67,2.7,2.7,0,0,0-.38,1,5.69,5.69,0,0,0-.12,1.18,7.37,7.37,0,0,0,.11,1.31,2.78,2.78,0,0,0,.37,1,1.7,1.7,0,0,0,.7.63,2.54,2.54,0,0,0,1.1.21,2.34,2.34,0,0,0,1.11-.24,2.07,2.07,0,0,0,.71-.67,2.57,2.57,0,0,0,.39-1,5.82,5.82,0,0,0,.1-1.22Z" transform="translate(-1.22 -0.47)" fill="#fff"/>
              <path id="Path_226" data-name="Path 226" d="M55.92,135.84a.7.7,0,0,1-.11.26.47.47,0,0,1-.22.16,1.579,1.579,0,0,1-.37.06,4.711,4.711,0,0,1-.57,0,5.642,5.642,0,0,1-.63,0,1.579,1.579,0,0,1-.37-.06.41.41,0,0,1-.2-.16.71.71,0,0,1-.09-.26l-1.42-5.6h0l-1.34,5.6a.78.78,0,0,1-.1.26.37.37,0,0,1-.19.15,1.09,1.09,0,0,1-.36.07,5.345,5.345,0,0,1-.61,0,5.642,5.642,0,0,1-.63,0,1.49,1.49,0,0,1-.37-.06.37.37,0,0,1-.2-.16.92.92,0,0,1-.11-.26l-2-7.72a1.34,1.34,0,0,1-.07-.38.23.23,0,0,1,.08-.22.46.46,0,0,1,.28-.09h1.05a1.3,1.3,0,0,1,.28,0,.21.21,0,0,1,.13.11,1.669,1.669,0,0,1,.06.2l1.55,6.78h0L51,127.83a.73.73,0,0,1,.07-.21.28.28,0,0,1,.15-.13,1,1,0,0,1,.29-.06h1.02a1,1,0,0,1,.3.06.26.26,0,0,1,.15.12.93.93,0,0,1,.08.22l1.66,6.73h0l1.55-6.76a1.05,1.05,0,0,1,.05-.19.3.3,0,0,1,.13-.12.9.9,0,0,1,.28-.06h.96a.39.39,0,0,1,.25.09.28.28,0,0,1,.06.23,1.9,1.9,0,0,1-.07.39Z" transform="translate(-1.22 -0.47)" fill="#fff"/>
              <path id="Path_227" data-name="Path 227" d="M71,131.77a6.61,6.61,0,0,1-.27,2,4.17,4.17,0,0,1-.82,1.48,3.49,3.49,0,0,1-1.33.92,5,5,0,0,1-1.85.32,5.5,5.5,0,0,1-1.8-.27,3.13,3.13,0,0,1-1.28-.83,3.58,3.58,0,0,1-.77-1.4,7.18,7.18,0,0,1-.25-2,6.43,6.43,0,0,1,.27-1.93,3.92,3.92,0,0,1,.81-1.46,3.53,3.53,0,0,1,1.34-.92,4.81,4.81,0,0,1,1.85-.32,5.59,5.59,0,0,1,1.77.26,3.14,3.14,0,0,1,1.29.82,3.72,3.72,0,0,1,.78,1.4A7,7,0,0,1,71,131.77Zm-1.89.1A6.26,6.26,0,0,0,69,130.6a2.67,2.67,0,0,0-.37-1,1.68,1.68,0,0,0-.7-.62,2.38,2.38,0,0,0-1.09-.23,2.33,2.33,0,0,0-1.11.25,2,2,0,0,0-.72.67,2.7,2.7,0,0,0-.38,1,5.69,5.69,0,0,0-.12,1.18,7.368,7.368,0,0,0,.11,1.31,2.78,2.78,0,0,0,.37,1,1.7,1.7,0,0,0,.7.63,2.54,2.54,0,0,0,1.1.21,2.34,2.34,0,0,0,1.11-.24,2.07,2.07,0,0,0,.71-.67,2.57,2.57,0,0,0,.39-1,5.82,5.82,0,0,0,.09-1.22Z" transform="translate(-1.22 -0.47)" fill="#fff"/>
              <path id="Path_228" data-name="Path 228" d="M78.83,130.14a3.38,3.38,0,0,1-.24,1.32,2.56,2.56,0,0,1-.67,1,3.1,3.1,0,0,1-1.09.6,5.28,5.28,0,0,1-1.52.2h-.74v2.82a.21.21,0,0,1,0,.13.42.42,0,0,1-.14.09,1.428,1.428,0,0,1-.28,0h-.87a1.309,1.309,0,0,1-.27,0,.49.49,0,0,1-.15-.09.2.2,0,0,1,0-.13v-8a.66.66,0,0,1,.17-.49.64.64,0,0,1,.44-.16h2.08a5.74,5.74,0,0,1,.6,0,5.328,5.328,0,0,1,.68.1,2.87,2.87,0,0,1,.8.29,2.28,2.28,0,0,1,1.14,1.3A3,3,0,0,1,78.83,130.14Zm-1.88.13a1.55,1.55,0,0,0-.17-.76,1.11,1.11,0,0,0-.4-.45,1.37,1.37,0,0,0-.5-.18,3.31,3.31,0,0,0-.55,0h-.76v3h.81a2.179,2.179,0,0,0,.72-.11,1.25,1.25,0,0,0,.47-.33,1.35,1.35,0,0,0,.28-.5,1.81,1.81,0,0,0,.15-.67Z" transform="translate(-1.22 -0.47)" fill="#fff"/>
              <path id="Path_229" data-name="Path 229" d="M85.75,135.6a2.92,2.92,0,0,1,0,.33.81.81,0,0,1,0,.21.144.144,0,0,1-.09.12.15.15,0,0,1-.11,0H81a.53.53,0,0,1-.38-.13.54.54,0,0,1-.16-.44V128a.52.52,0,0,1,.16-.43.54.54,0,0,1,.38-.14h4.41a.21.21,0,0,1,.11,0,.23.23,0,0,1,.08.12.65.65,0,0,1,0,.22,1.67,1.67,0,0,1,0,.34,1.571,1.571,0,0,1,0,.32.65.65,0,0,1,0,.22.36.36,0,0,1-.08.12.2.2,0,0,1-.11,0H82.29V131H85a.25.25,0,0,1,.11,0,.28.28,0,0,1,.08.12.54.54,0,0,1,0,.21,2.649,2.649,0,0,1,0,.65.54.54,0,0,1,0,.21.24.24,0,0,1-.08.11.17.17,0,0,1-.11,0H82.29v2.49h3.19a.15.15,0,0,1,.11,0,.56.56,0,0,1,.09.12.929.929,0,0,1,0,.21,3,3,0,0,1,.07.48Z" transform="translate(-1.22 -0.47)" fill="#fff"/>
              <path id="Path_230" data-name="Path 230" d="M94.9,135.67a.61.61,0,0,1-.05.28.8.8,0,0,1-.15.21.66.66,0,0,1-.22.12,1.069,1.069,0,0,1-.25,0h-.77a1.68,1.68,0,0,1-.41,0,.85.85,0,0,1-.32-.18,1.71,1.71,0,0,1-.29-.34,5.35,5.35,0,0,1-.3-.56l-2.21-4.13-.39-.8c-.13-.28-.25-.56-.35-.83h0v6.63a.23.23,0,0,1-.17.21.7.7,0,0,1-.25.06h-.8a.7.7,0,0,1-.24-.06.25.25,0,0,1-.13-.09.27.27,0,0,1,0-.12v-8a.6.6,0,0,1,.19-.49.71.71,0,0,1,.46-.16h1a1.78,1.78,0,0,1,.44,0,.86.86,0,0,1,.32.15,1,1,0,0,1,.26.28,4.191,4.191,0,0,1,.26.45l1.72,3.23.3.58.28.57.27.55c.08.19.17.37.25.55h0v-6.15a.18.18,0,0,1,0-.12.28.28,0,0,1,.13-.1,1.31,1.31,0,0,1,.25-.06h.8a1,1,0,0,1,.24.06.25.25,0,0,1,.12.1.24.24,0,0,1,0,.12Z" transform="translate(-1.22 -0.47)" fill="#fff"/>
            </g>
          </g>
        </g>
      </g>
    </g>
  </g>
</svg>
