<svg xmlns="http://www.w3.org/2000/svg" xmlns:xlink="http://www.w3.org/1999/xlink" width="30" height="30" viewBox="0 0 30 30">
  <defs>
    <clipPath id="clip-ig">
      <rect width="30" height="30"/>
    </clipPath>
  </defs>
  <g id="ig" clip-path="url(#clip-ig)">
    <g id="Component_10_4" data-name="Component 10 – 4" transform="translate(0 0)">
      <g id="Component_8_1" data-name="Component 8 – 1">
        <g id="Group_1175" data-name="Group 1175">
          <g id="Youtube">
            <path id="Oval" d="M15,0A15,15,0,1,1,0,15,15,15,0,0,1,15,0Z" transform="translate(0 0)" fill="#fff"/>
          </g>
          <g id="Group_1173" data-name="Group 1173" transform="translate(7.212 7.579)">
            <path id="Path_2894" data-name="Path 2894" d="M12.029,5.511c2.123,0,2.374.008,3.212.046a4.4,4.4,0,0,1,1.476.274A2.633,2.633,0,0,1,18.226,7.34,4.4,4.4,0,0,1,18.5,8.816c.038.838.046,1.09.046,3.212s-.008,2.374-.046,3.212a4.4,4.4,0,0,1-.274,1.476,2.633,2.633,0,0,1-1.509,1.509,4.4,4.4,0,0,1-1.476.274c-.838.038-1.09.046-3.212.046s-2.374-.008-3.212-.046a4.4,4.4,0,0,1-1.476-.274,2.633,2.633,0,0,1-1.509-1.509,4.4,4.4,0,0,1-.274-1.476c-.038-.838-.046-1.09-.046-3.212s.008-2.374.046-3.212A4.4,4.4,0,0,1,5.831,7.34,2.633,2.633,0,0,1,7.34,5.831a4.4,4.4,0,0,1,1.476-.274c.838-.038,1.09-.046,3.212-.046m0-1.432c-2.159,0-2.43.009-3.278.048a5.835,5.835,0,0,0-1.93.37A4.065,4.065,0,0,0,4.5,6.821a5.835,5.835,0,0,0-.37,1.93c-.039.848-.048,1.119-.048,3.278s.009,2.43.048,3.278a5.835,5.835,0,0,0,.37,1.93,4.065,4.065,0,0,0,2.325,2.325,5.835,5.835,0,0,0,1.93.37c.848.039,1.119.048,3.278.048s2.43-.009,3.278-.048a5.835,5.835,0,0,0,1.93-.37,4.065,4.065,0,0,0,2.325-2.325,5.835,5.835,0,0,0,.37-1.93c.039-.848.048-1.119.048-3.278s-.009-2.43-.048-3.278a5.835,5.835,0,0,0-.37-1.93A4.065,4.065,0,0,0,17.236,4.5a5.835,5.835,0,0,0-1.93-.37c-.848-.039-1.119-.048-3.278-.048Z" transform="translate(-4.079 -4.079)" fill="#004130"/>
            <path id="Path_2895" data-name="Path 2895" d="M131.054,126.635a4.419,4.419,0,1,0,4.419,4.419A4.419,4.419,0,0,0,131.054,126.635Zm0,7.287a2.868,2.868,0,1,1,2.868-2.868A2.868,2.868,0,0,1,131.054,133.922Z" transform="translate(-123.104 -123.104)" fill="#004130"/>
            <ellipse id="Ellipse_100" data-name="Ellipse 100" cx="0.871" cy="0.871" rx="0.871" ry="0.871" transform="translate(11.372 2.785)" fill="#004130"/>
          </g>
        </g>
      </g>
    </g>
  </g>
</svg>
