<svg xmlns="http://www.w3.org/2000/svg" xmlns:xlink="http://www.w3.org/1999/xlink" width="40" height="40" viewBox="0 0 40 40">
  <defs>
    <clipPath id="clip-Activities">
      <rect width="40" height="40"/>
    </clipPath>
  </defs>
  <g id="Activities" clip-path="url(#clip-Activities)">
    <g id="Component_16_4" data-name="Component 16 – 4" transform="translate(2)">
      <path id="Path_30" data-name="Path 30" d="M344.353,1680.336a2.247,2.247,0,1,1,2.486-2.235,2.373,2.373,0,0,1-2.486,2.235m0-5.932a3.719,3.719,0,1,0,4.113,3.7,3.926,3.926,0,0,0-4.113-3.7" transform="translate(-312.263 -1643.849)" fill="#17382e"/>
      <path id="Path_31" data-name="Path 31" d="M335.728,1640.9a3.193,3.193,0,1,1-3.532,3.176,3.372,3.372,0,0,1,3.532-3.176m0,7.814a4.664,4.664,0,1,0-5.159-4.638,4.925,4.925,0,0,0,5.159,4.638" transform="translate(-312.263 -1639.442)" fill="#17382e"/>
      <path id="Path_32" data-name="Path 32" d="M323.667,1671.171c-2.213.71-8.279,1.917-9.2,1.661a1.05,1.05,0,0,1-.57-.866.831.831,0,0,1,.24-.8,35.038,35.038,0,0,1,5.2-1.209c1.317-.252,2.454-.468,3.074-.641a9.6,9.6,0,0,0,3.712-2.795l-1.138-1.208c-.415.566-1.966,2.3-3.055,2.605-.549.152-1.706.373-2.931.607-3.029.578-5.069.99-5.785,1.438a2.165,2.165,0,0,0-.928,2.169,2.475,2.475,0,0,0,1.6,2.057,3.117,3.117,0,0,0,.963.114,47.933,47.933,0,0,0,9.37-1.759c1.691-.542,3.719-2.728,3.967-3l-.867-1.355a13.33,13.33,0,0,1-3.647,2.982" transform="translate(-312.263 -1642.703)" fill="#17382e"/>
      <path id="Path_33" data-name="Path 33" d="M336.806,1653.561l-.421,3.128c1.386,4.134,1.446,3.713,2.046,3.737l4.372.17a1.17,1.17,0,0,1,.609.161c.046.034.169.125.153.447-.041.8-.324.843-.793.839l-5.261.012a19.388,19.388,0,0,1-1.582-1.931l-.28,1.8c.731,1.026,1.372,1.6,1.66,1.6l5.458-.012a2.181,2.181,0,0,0,2.423-2.235,1.825,1.825,0,0,0-.745-1.644,2.819,2.819,0,0,0-1.569-.492l-3.973-.156a50,50,0,0,1-2.1-5.418" transform="translate(-312.263 -1641.222)" fill="#17382e"/>
      <path id="Path_34" data-name="Path 34" d="M336.148,1678.744a1.259,1.259,0,0,1-1.08.454,1,1,0,0,1-.777-.263,21.415,21.415,0,0,1-.268-4.5,21.605,21.605,0,0,0-.171-3.625c-.332-1.347-4.8-7.029-6.115-8.687l1.364-8.222a.683.683,0,0,0-.176-.573.853.853,0,0,0-.591-.266c-.038,0-.94-.038-1.912-.038a7.366,7.366,0,0,0-2.468.215,31.572,31.572,0,0,0-4.024,3,1.119,1.119,0,0,1-.59.24c-.057,0-.207,0-.421-.236-.574-.636-.394-.833-.054-1.1a.368.368,0,0,0,.031-.026c1.817-1.586,3.909-3.349,4.239-3.54a33.988,33.988,0,0,1,5.395-1l.357,0,.457,0a15.41,15.41,0,0,1,2.618.2,2.731,2.731,0,0,1,1.634,1.065,2.085,2.085,0,0,1,.455,1.708.328.328,0,0,0-.01.054l-1.506,10.687a.671.671,0,0,0,.119.482,63.375,63.375,0,0,1,3.526,5.424c.336.821.419,7.645-.032,8.552m-1.962-14.535,1.465-10.4a3.416,3.416,0,0,0-.709-2.794,4.35,4.35,0,0,0-2.694-1.683,17.041,17.041,0,0,0-2.9-.224l-.47,0-.35,0a31.482,31.482,0,0,0-6.153,1.175,56.862,56.862,0,0,0-4.594,3.768c-.644.514-1.494,1.59-.121,3.11a2.221,2.221,0,0,0,1.684.777,2.792,2.792,0,0,0,1.634-.58c.014-.01.027-.02.04-.031a39.288,39.288,0,0,1,3.577-2.747,8.409,8.409,0,0,1,1.831-.1c.329,0,.653.005.935.01l-1.278,7.7a.677.677,0,0,0,.144.534c2.824,3.534,5.855,7.639,6.04,8.392a23.234,23.234,0,0,1,.132,3.314c.013,3.074.066,4.593.493,5.236a2.558,2.558,0,0,0,2.18.985,2.831,2.831,0,0,0,2.551-1.293c.634-1.207.58-8.479.089-9.682a60.25,60.25,0,0,0-3.522-5.477" transform="translate(-312.263 -1640.66)" fill="#17382e"/>
    </g>
  </g>
</svg>
