<svg xmlns="http://www.w3.org/2000/svg" xmlns:xlink="http://www.w3.org/1999/xlink" width="40" height="40" viewBox="0 0 40 40">
  <defs>
    <clipPath id="clip-Fee">
      <rect width="40" height="40"/>
    </clipPath>
  </defs>
  <g id="Fee" clip-path="url(#clip-Fee)">
    <g id="Component_14_4" data-name="Component 14 – 4" transform="translate(7 0)">
      <path id="Path_49" data-name="Path 49" d="M84.261,1592.237a7.78,7.78,0,0,0-3.413-2.682,8.313,8.313,0,0,0,2.654-2.414,9.67,9.67,0,0,0,1.807-5.722,10.145,10.145,0,0,0-1.037-4.687,9.65,9.65,0,0,0-2.8-3.329,12.774,12.774,0,0,0-3.993-1.978,17.061,17.061,0,0,0-8.82-.176A13.021,13.021,0,0,0,65,1572.777a10.621,10.621,0,0,0-2.923,2.681,12.094,12.094,0,0,0-1.881,3.77l-.265.867,8.215,2.184.268-.762a5.085,5.085,0,0,1,1.819-2.529,4.655,4.655,0,0,1,2.833-.9,4.491,4.491,0,0,1,3.161,1.087,3.625,3.625,0,0,1,1.164,2.851,4.022,4.022,0,0,1-.483,2.154,3.272,3.272,0,0,1-1.284,1.175,6.051,6.051,0,0,1-2.006.587,19.5,19.5,0,0,1-2.489.159H68.65v7.31h2.4a19.355,19.355,0,0,1,2.712.2,7.3,7.3,0,0,1,2.322.714,4.185,4.185,0,0,1,1.571,1.412,4.243,4.243,0,0,1,.6,2.389,4.721,4.721,0,0,1-.406,1.975,4.5,4.5,0,0,1-1.109,1.519,5.335,5.335,0,0,1-1.69,1,5.822,5.822,0,0,1-2.033.36,5.08,5.08,0,0,1-3.363-1.01,5.735,5.735,0,0,1-1.735-3.084l-.216-.863-1.713.459.665,2.127a6.2,6.2,0,0,0,6.362,4.121,7.568,7.568,0,0,0,2.641-.469,7.068,7.068,0,0,0,2.242-1.327,6.25,6.25,0,0,0,1.542-2.1,6.476,6.476,0,0,0,.563-2.7,5.649,5.649,0,0,0-3.114-5.354,9.023,9.023,0,0,0-2.878-.893,21.1,21.1,0,0,0-2.96-.216H70.4v-3.81h.729a21.35,21.35,0,0,0,2.711-.173,7.8,7.8,0,0,0,2.585-.767,5.052,5.052,0,0,0,1.956-1.785,5.7,5.7,0,0,0,.76-3.1,5.35,5.35,0,0,0-1.74-4.148,6.241,6.241,0,0,0-4.335-1.54,6.433,6.433,0,0,0-3.861,1.231,6.7,6.7,0,0,0-2.134,2.611l-4.9-1.3a9.99,9.99,0,0,1,1.307-2.37,8.892,8.892,0,0,1,2.443-2.243,11.3,11.3,0,0,1,3.171-1.321,15.319,15.319,0,0,1,7.888.155,11.013,11.013,0,0,1,3.447,1.7,7.92,7.92,0,0,1,2.292,2.73,8.428,8.428,0,0,1,.843,3.886,7.952,7.952,0,0,1-1.483,4.707A6.747,6.747,0,0,1,78,1588.813l-.667.246v1.442l.747.11a6.683,6.683,0,0,1,4.754,2.644,9.079,9.079,0,0,1,1.608,5.4,9.033,9.033,0,0,1-3.395,7.326,11.117,11.117,0,0,1-3.656,1.922,16.191,16.191,0,0,1-8.462.191,11.579,11.579,0,0,1-3.4-1.413,9.128,9.128,0,0,1-2.562-2.425,10.871,10.871,0,0,1-1.414-2.779l2.517-.675-.534-1.668-4.173,1.117.24.853a13.213,13.213,0,0,0,1.944,4.175,10.863,10.863,0,0,0,3.053,2.885,13.321,13.321,0,0,0,3.906,1.63,18.835,18.835,0,0,0,4.5.523,16.326,16.326,0,0,0,4.91-.745,12.861,12.861,0,0,0,4.228-2.228,10.782,10.782,0,0,0,4.047-8.689,10.794,10.794,0,0,0-1.934-6.416" transform="translate(-59.37 -1570.754)" fill="#17382e"/>
    </g>
  </g>
</svg>
