<svg xmlns="http://www.w3.org/2000/svg" xmlns:xlink="http://www.w3.org/1999/xlink" width="30" height="30" viewBox="0 0 30 30">
  <defs>
    <clipPath id="clip-ttr">
      <rect width="30" height="30"/>
    </clipPath>
  </defs>
  <g id="ttr" clip-path="url(#clip-ttr)">
    <g id="Component_12_4" data-name="Component 12 – 4">
      <path id="Oval" d="M15,0A15,15,0,1,1,0,15,15,15,0,0,1,15,0Z" fill="#fff"/>
      <path id="Twitter" d="M16.125,1.551a6.636,6.636,0,0,1-1.9.521A3.318,3.318,0,0,0,15.679.242a6.611,6.611,0,0,1-2.1.8A3.31,3.31,0,0,0,7.855,3.307a3.345,3.345,0,0,0,.086.754A9.391,9.391,0,0,1,1.123.606,3.311,3.311,0,0,0,2.147,5.021a3.281,3.281,0,0,1-1.5-.414v.042A3.309,3.309,0,0,0,3.3,7.892a3.3,3.3,0,0,1-.872.116,3.254,3.254,0,0,1-.622-.06,3.313,3.313,0,0,0,3.091,2.3A6.646,6.646,0,0,1,.789,11.661,6.668,6.668,0,0,1,0,11.615,9.362,9.362,0,0,0,5.071,13.1a9.347,9.347,0,0,0,9.412-9.41c0-.144,0-.285-.009-.428a6.723,6.723,0,0,0,1.651-1.712Z" transform="translate(7.434 8.853)" fill="#004130"/>
    </g>
  </g>
</svg>
