<svg xmlns="http://www.w3.org/2000/svg" xmlns:xlink="http://www.w3.org/1999/xlink" width="40" height="40" viewBox="0 0 40 40">
  <defs>
    <clipPath id="clip-Uniform">
      <rect width="40" height="40"/>
    </clipPath>
  </defs>
  <g id="Uniform" clip-path="url(#clip-Uniform)">
    <g id="Group_77" data-name="Group 77" transform="translate(-311.68 -1571)">
      <g id="Component_15_4" data-name="Component 15 – 4" transform="translate(313.68 1571.011)">
        <path id="Path_50" data-name="Path 50" d="M348.794,1608.868a.466.466,0,0,1-.466.464H335.946v-24.421l1.7,1.735,5.634-8.08,5.516,1.585Zm-15.563-29.132,6.151-6.668a.842.842,0,0,0,.173-.283.3.3,0,0,1,.053.041l2.414,4.607-4.6,6.589Zm-6.525-7.046h10.741l-5.37,5.82Zm.021,11.332-4.6-6.589,2.4-4.569a.526.526,0,0,1,.076-.066.85.85,0,0,0,.169.27l6.152,6.668Zm16.925-7.094-2.6-4.95-.057-.085a2.232,2.232,0,0,0-1.771-.881h-14.3a2.245,2.245,0,0,0-1.8.934l-2.617,4.983-6.822,1.958v1.879l1.679-.573v-.041l5.516-1.585,5.633,8.08,1.7-1.735v24.421H315.824a.465.465,0,0,1-.465-.464v-27.11l-1.679.612v26.5a2.146,2.146,0,0,0,2.144,2.143h13.9v-1.679H329.7v-25.949l2.375-2.426,2.374,2.426v25.949h-.03v1.679h13.908a2.146,2.146,0,0,0,2.144-2.143v-29.981Z" transform="translate(-313.68 -1571.011)" fill="#17382e"/>
        <path id="Path_51" data-name="Path 51" d="M331.781,1593.729a1.534,1.534,0,1,0,1.534,1.535,1.536,1.536,0,0,0-1.534-1.535" transform="translate(-313.68 -1571.011)" fill="#17382e"/>
        <path id="Path_52" data-name="Path 52" d="M331.781,1601.279a1.533,1.533,0,1,0,1.534,1.534,1.536,1.536,0,0,0-1.534-1.534" transform="translate(-313.68 -1571.011)" fill="#17382e"/>
        <path id="Path_53" data-name="Path 53" d="M339.267,1593.918h5.84v3.039l-2.92,1.259-2.92-1.259Zm0-2.06h5.84v.586h-5.84Zm-1.652,6.185,4.572,1.973,4.573-1.973v-7.836h-9.145Z" transform="translate(-313.68 -1571.011)" fill="#17382e"/>
      </g>
    </g>
  </g>
</svg>
