<svg xmlns="http://www.w3.org/2000/svg" xmlns:xlink="http://www.w3.org/1999/xlink" width="30" height="30" viewBox="0 0 30 30">
  <defs>
    <clipPath id="clip-yt">
      <rect width="30" height="30"/>
    </clipPath>
  </defs>
  <g id="yt" clip-path="url(#clip-yt)">
    <g id="Component_13_4" data-name="Component 13 – 4">
      <path id="Oval" d="M15,0A15,15,0,1,1,0,15,15,15,0,0,1,15,0Z" fill="#fff"/>
      <path id="Path_86" data-name="Path 86" d="M489.654,3103.191V3098.3c1.571.818,3.132,1.631,4.716,2.453l-4.716,2.439m9.076-5.792a1.875,1.875,0,0,0-1.6-1.454,75.633,75.633,0,0,0-11.112,0,1.864,1.864,0,0,0-1.6,1.454,23.652,23.652,0,0,0,0,6.993,1.874,1.874,0,0,0,1.6,1.457,76.418,76.418,0,0,0,11.109,0,1.883,1.883,0,0,0,1.606-1.457,23.9,23.9,0,0,0,0-6.993" transform="translate(-476.369 -3085.942)" fill="#004130"/>
    </g>
  </g>
</svg>
