<svg xmlns="http://www.w3.org/2000/svg" xmlns:xlink="http://www.w3.org/1999/xlink" width="159.116" height="38.906" viewBox="0 0 159.116 38.906"><defs><style>.a{fill:none;}.b{fill:#fffffe;}.c{fill:#1c69a4;}.d{clip-path:url(#a);}.e{clip-path:url(#b);}</style><clipPath id="a"><path class="a" d="M0,0H130.536V36.011H0Z"/></clipPath><clipPath id="b"><path class="a" d="M0,0H11.738V8.3H0Z"/></clipPath></defs><path class="b" d="M8.073,7.057h5.118v5.9a7.6,7.6,0,0,1-2.206,1.39,8.836,8.836,0,0,1-3.512.6,8.066,8.066,0,0,1-3.137-.577A6.953,6.953,0,0,1,1.991,12.8,6.81,6.81,0,0,1,.514,10.457,8.092,8.092,0,0,1,0,7.548a7.969,7.969,0,0,1,.535-2.93,7.3,7.3,0,0,1,1.51-2.395A7.183,7.183,0,0,1,4.368.6,7.26,7.26,0,0,1,7.345,0,7.778,7.778,0,0,1,9.272.225a7.076,7.076,0,0,1,1.6.609,5.964,5.964,0,0,1,1.274.909,7.7,7.7,0,0,1,.985,1.123L11.221,4.555a5.906,5.906,0,0,0-1.6-1.582,4.069,4.069,0,0,0-2.281-.6,4.158,4.158,0,0,0-1.884.417A4.447,4.447,0,0,0,4.036,3.9a4.861,4.861,0,0,0-.9,1.625,6.139,6.139,0,0,0-.31,1.957A5.452,5.452,0,0,0,3.2,9.559a4.808,4.808,0,0,0,1.028,1.582,4.48,4.48,0,0,0,1.52,1.016,4.81,4.81,0,0,0,1.831.353,4.46,4.46,0,0,0,3.041-.941V9.345H8.073V7.057" transform="translate(62.782)"/><path class="b" d="M13.126,12A5.275,5.275,0,0,1,12.238,13a7.53,7.53,0,0,1-1.338.952,8.193,8.193,0,0,1-1.692.716,6.715,6.715,0,0,1-1.948.278,7.524,7.524,0,0,1-2.934-.556,6.813,6.813,0,0,1-2.291-1.55A7.076,7.076,0,0,1,.535,10.5,7.918,7.918,0,0,1,0,7.548a7.966,7.966,0,0,1,.535-2.93,7.3,7.3,0,0,1,1.51-2.395A7.181,7.181,0,0,1,4.368.6,7.259,7.259,0,0,1,7.345,0,7.776,7.776,0,0,1,9.272.225a7.074,7.074,0,0,1,1.6.609,5.968,5.968,0,0,1,1.274.909,7.71,7.71,0,0,1,.985,1.123L11.22,4.555a5.908,5.908,0,0,0-1.6-1.582,4.069,4.069,0,0,0-2.281-.6,4.16,4.16,0,0,0-1.884.417A4.448,4.448,0,0,0,4.036,3.9a4.861,4.861,0,0,0-.9,1.625,6.131,6.131,0,0,0-.311,1.957,5.843,5.843,0,0,0,.311,1.925,4.657,4.657,0,0,0,.889,1.561,4.247,4.247,0,0,0,1.381,1.048,4.132,4.132,0,0,0,1.809.385,5.087,5.087,0,0,0,1.574-.214,4.188,4.188,0,0,0,1.884-1.208q.31-.352.568-.609L13.126,12" transform="translate(28.564)"/><path class="b" d="M0,0H2.72L9.636,10.136V0H12.27V14.263H9.615L2.634,4V14.263H0V0" transform="translate(80.353 0.342)"/><path class="b" d="M0,14.263H2.7V0H0Z" transform="translate(97.211 0.342)"/><path class="b" d="M4.839,2.374H0V0H12.377V2.374H7.537v11.89h-2.7V2.374" transform="translate(103.745 0.342)"/><path class="b" d="M7.43,15.033a7.244,7.244,0,0,1-2.912-.588A7.44,7.44,0,0,1,2.163,12.83a7.65,7.65,0,0,1-1.585-2.4A7.482,7.482,0,0,1,0,7.506a7.487,7.487,0,0,1,.578-2.93A7.627,7.627,0,0,1,2.152,2.192,7.353,7.353,0,0,1,7.43,0a7.242,7.242,0,0,1,2.912.588,7.591,7.591,0,0,1,3.94,9.847,7.654,7.654,0,0,1-1.585,2.4,7.448,7.448,0,0,1-2.356,1.615A7.244,7.244,0,0,1,7.43,15.033Zm0-12.6a4.493,4.493,0,0,0-1.916.4,4.369,4.369,0,0,0-1.446,1.08,4.856,4.856,0,0,0-.921,1.593,5.957,5.957,0,0,0,0,3.86,4.951,4.951,0,0,0,.921,1.614A4.306,4.306,0,0,0,7.43,12.488a4.349,4.349,0,0,0,3.362-1.508,4.96,4.96,0,0,0,.921-1.614,5.96,5.96,0,0,0,0-3.86,4.865,4.865,0,0,0-.921-1.593,4.348,4.348,0,0,0-1.456-1.08A4.515,4.515,0,0,0,7.43,2.438Z" transform="translate(44.75 0)"/><path class="c" d="M0,2.374H10.789V0H0Z" transform="translate(46.786 18.593)"/><g transform="translate(0 0.342)"><path class="a" d="M0,0H130.536V36.011H0Z" transform="translate(0 0)"/><g class="d" transform="translate(0 0)"><path class="b" d="M13.619,14.263h-3L9.379,10.649H4.068L2.826,14.263H0L5.418,0H8.2l5.417,14.263ZM6.724,2.887,4.818,8.425h3.79L6.724,2.887Z" transform="translate(116.917 0)"/><path class="b" d="M7.5,8.06H6.207L5.372,5.812H2.057L1.222,8.06H0L3.158,0H4.344L7.5,8.06ZM3.715,1.293h0L2.4,4.834H5.021L3.715,1.293Z" transform="translate(-0.009 27.951)"/></g></g><path class="b" d="M.012,1.354V.707Q.012.435,0,.133H1.04l.037.846q.109-.146.266-.32A1.816,1.816,0,0,1,1.73.338,2.282,2.282,0,0,1,2.965,0,2,2,0,0,1,4.6.641,2.638,2.638,0,0,1,5.13,2.38V5.752H4.041V2.465A1.664,1.664,0,0,0,3.7,1.311,1.232,1.232,0,0,0,2.747.943a1.48,1.48,0,0,0-.787.193,1.5,1.5,0,0,0-.5.5,2.246,2.246,0,0,0-.272.7,3.808,3.808,0,0,0-.084.8v2.61H.012v-4.4" transform="translate(8.425 30.601)"/><path class="b" d="M1.161,7.842H.072V2.223H1.161ZM1.222,1.22H0V0H1.222V1.22Z" transform="translate(17.185 28.511)"/><path class="b" d="M.012,1.354V.707Q.012.435,0,.133H1.04l.037.846q.109-.146.266-.32A1.813,1.813,0,0,1,1.73.338,2.281,2.281,0,0,1,2.965,0,2,2,0,0,1,4.6.641,2.638,2.638,0,0,1,5.13,2.38V5.752H4.041V2.465A1.664,1.664,0,0,0,3.7,1.311,1.232,1.232,0,0,0,2.747.943a1.48,1.48,0,0,0-.786.193,1.5,1.5,0,0,0-.5.5,2.247,2.247,0,0,0-.272.7,3.818,3.818,0,0,0-.084.8v2.61H.012v-4.4" transform="translate(19.874 30.601)"/><path class="b" d="M.666,4.386a2.293,2.293,0,0,0,.726.483,2.472,2.472,0,0,0,.98.181,2.082,2.082,0,0,0,.907-.175.577.577,0,0,0,.363-.55.666.666,0,0,0-.079-.332A.7.7,0,0,0,3.3,3.746a2.3,2.3,0,0,0-.5-.2q-.308-.091-.768-.2a4.668,4.668,0,0,1-.647-.194,2.145,2.145,0,0,1-.575-.32A1.58,1.58,0,0,1,.4,2.35a1.39,1.39,0,0,1-.157-.683A1.355,1.355,0,0,1,.43.948a1.67,1.67,0,0,1,.5-.519A2.408,2.408,0,0,1,1.64.109,3.054,3.054,0,0,1,2.456,0,3.6,3.6,0,0,1,3.685.187a2.834,2.834,0,0,1,.9.526l-.593.749a2.169,2.169,0,0,0-.635-.387A2.323,2.323,0,0,0,2.468.918a1.765,1.765,0,0,0-.835.169.582.582,0,0,0-.315.556.574.574,0,0,0,.418.538,6.964,6.964,0,0,0,1.095.332,6.75,6.75,0,0,1,.744.223,2.278,2.278,0,0,1,.6.326,1.459,1.459,0,0,1,.412.489,1.5,1.5,0,0,1,.151.7A1.406,1.406,0,0,1,4.55,5a1.7,1.7,0,0,1-.52.538,2.44,2.44,0,0,1-.75.326,3.524,3.524,0,0,1-.883.109A3.118,3.118,0,0,1,0,5.111l.666-.725" transform="translate(26.077 30.553)"/><path class="b" d="M1.089,8.157H.012V.695C.012.519.008.331,0,.121H1.041l.036.8A2.9,2.9,0,0,1,1.319.653a2.133,2.133,0,0,1,.393-.3A2.618,2.618,0,0,1,2.263.1,2.354,2.354,0,0,1,2.989,0,2.488,2.488,0,0,1,4.12.242a2.291,2.291,0,0,1,.792.652,2.806,2.806,0,0,1,.466.943A4.1,4.1,0,0,1,5.53,2.961a3.1,3.1,0,0,1-.26,1.317,2.745,2.745,0,0,1-.678.918,2.781,2.781,0,0,1-.932.538,3.137,3.137,0,0,1-1.01.175,2.979,2.979,0,0,1-.914-.115c-.231-.077-.448-.16-.647-.247v2.61ZM2.747.943a1.575,1.575,0,0,0-.992.32,1.728,1.728,0,0,0-.581.937,1.681,1.681,0,0,0-.072.417c-.008.146-.012.3-.012.465V4.519a2.18,2.18,0,0,0,.557.3,2.476,2.476,0,0,0,.907.145,1.874,1.874,0,0,0,.756-.151A1.743,1.743,0,0,0,3.9,4.393a1.923,1.923,0,0,0,.381-.634,2.313,2.313,0,0,0,.133-.8,3.19,3.19,0,0,0-.091-.773,1.871,1.871,0,0,0-.29-.641,1.44,1.44,0,0,0-.514-.441A1.676,1.676,0,0,0,2.747.943Z" transform="translate(32.019 30.613)"/><path class="b" d="M1.162,7.842H.073V2.223H1.162Zm.06-6.622H0V0H1.222V1.22Z" transform="translate(38.74 28.511)"/><path class="b" d="M.012,1.232V.623C.012.449.008.27,0,.085H1.041l.037.907a2.9,2.9,0,0,1,.254-.32,1.888,1.888,0,0,1,.381-.32A2.419,2.419,0,0,1,2.233.1,2.1,2.1,0,0,1,2.916,0a2.129,2.129,0,0,1,.333.024A1.639,1.639,0,0,1,3.533.1L3.291,1.112a1.557,1.557,0,0,0-.557-.085,1.552,1.552,0,0,0-1.161.5,1.789,1.789,0,0,0-.345.55,1.754,1.754,0,0,0-.127.664V5.7H.012V1.232" transform="translate(41.428 30.65)"/><path class="b" d="M1.162,7.842H.073V2.223H1.162Zm.06-6.622H0V0H1.222V1.22Z" transform="translate(45.795 28.511)"/><g transform="translate(48.484 30.601)"><path class="a" d="M0,0H11.738V8.3H0Z" transform="translate(0 0)"/><g class="e" transform="translate(0 0)"><path class="b" d="M.012,1.354V.707Q.012.435,0,.133H1.04l.037.846q.109-.146.266-.32A1.816,1.816,0,0,1,1.73.338,2.282,2.282,0,0,1,2.965,0,2,2,0,0,1,4.6.641,2.639,2.639,0,0,1,5.13,2.38V5.752H4.041V2.465A1.664,1.664,0,0,0,3.7,1.311,1.232,1.232,0,0,0,2.746.943a1.48,1.48,0,0,0-.786.193,1.5,1.5,0,0,0-.5.5,2.243,2.243,0,0,0-.272.7,3.808,3.808,0,0,0-.085.8v2.61H.012v-4.4"/><path class="b" d="M2.711,8.313a4.084,4.084,0,0,1-1.367-.187A3.139,3.139,0,0,1,.52,7.7l.508-.8a2.781,2.781,0,0,0,.684.332,3.076,3.076,0,0,0,.986.139,1.546,1.546,0,0,0,1.21-.447,1.7,1.7,0,0,0,.4-1.172V5.063c-.058.05-.136.119-.224.2a1.792,1.792,0,0,1-.351.242,2.826,2.826,0,0,1-.5.205,2.248,2.248,0,0,1-.666.09,2.7,2.7,0,0,1-1.1-.211,2.312,2.312,0,0,1-.8-.58,2.492,2.492,0,0,1-.5-.882A3.564,3.564,0,0,1,0,3.009a3.1,3.1,0,0,1,.23-1.2A2.857,2.857,0,0,1,.877.852a2.936,2.936,0,0,1,1-.628A3.59,3.59,0,0,1,3.17,0,6.471,6.471,0,0,1,4.453.121a5.839,5.839,0,0,1,.956.266V5.752a3.092,3.092,0,0,1-.177,1.083,2.129,2.129,0,0,1-.531.808,2.286,2.286,0,0,1-.851.5A3.578,3.578,0,0,1,2.711,8.313ZM3.17.955a2.225,2.225,0,0,0-.835.151A1.886,1.886,0,0,0,1.265,2.175,2.182,2.182,0,0,0,1.113,3a2.808,2.808,0,0,0,.091.725,1.633,1.633,0,0,0,.29.592,1.407,1.407,0,0,0,.5.4,1.706,1.706,0,0,0,.738.145,1.892,1.892,0,0,0,.7-.121,1.416,1.416,0,0,0,.5-.32,1.351,1.351,0,0,0,.291-.447,1.409,1.409,0,0,0,.1-.514V1.124c-.072-.024-.2-.059-.369-.1A3.426,3.426,0,0,0,3.17.955Z" transform="translate(6.329 0)"/></g></g><path class="b" d="M0,0H1.2L2.456,4.29,3.811,0h.932L6.1,4.326,7.333,0H8.458L6.595,5.619H5.518L4.211,1.692,2.916,5.619H1.9L0,0" transform="translate(63.283 30.734)"/><path class="b" d="M2.976,5.969a3,3,0,0,1-1.2-.236,2.853,2.853,0,0,1-.938-.647,3.061,3.061,0,0,1-.617-.948A2.984,2.984,0,0,1,0,2.985,2.983,2.983,0,0,1,.224,1.831,3.069,3.069,0,0,1,.841.882,2.86,2.86,0,0,1,1.779.236,2.994,2.994,0,0,1,2.976,0,2.964,2.964,0,0,1,4.162.236a2.935,2.935,0,0,1,.944.646,3.022,3.022,0,0,1,.623.949,2.988,2.988,0,0,1,.224,1.154,2.983,2.983,0,0,1-.847,2.1,2.928,2.928,0,0,1-.944.647A2.973,2.973,0,0,1,2.976,5.969Zm0-5.027a1.744,1.744,0,0,0-.786.176,1.866,1.866,0,0,0-.593.459,2.009,2.009,0,0,0-.369.653,2.316,2.316,0,0,0-.127.755,2.266,2.266,0,0,0,.127.749,2.036,2.036,0,0,0,.375.653,1.916,1.916,0,0,0,.593.465,1.707,1.707,0,0,0,.78.175,1.743,1.743,0,0,0,.786-.175,1.87,1.87,0,0,0,.593-.459,2.022,2.022,0,0,0,.369-.653,2.316,2.316,0,0,0,.127-.755,2.281,2.281,0,0,0-.127-.743,2.031,2.031,0,0,0-.375-.659,1.92,1.92,0,0,0-.593-.465A1.706,1.706,0,0,0,2.976.942Z" transform="translate(72.161 30.553)"/><path class="b" d="M.012,1.232V.623C.012.449.008.27,0,.085H1.04l.037.907a2.9,2.9,0,0,1,.254-.32,1.883,1.883,0,0,1,.381-.32A2.417,2.417,0,0,1,2.233.1,2.1,2.1,0,0,1,2.916,0a2.131,2.131,0,0,1,.333.024A1.634,1.634,0,0,1,3.533.1L3.291,1.112a1.556,1.556,0,0,0-.557-.085,1.553,1.553,0,0,0-1.162.5,1.794,1.794,0,0,0-.345.55,1.754,1.754,0,0,0-.127.664V5.7H.012V1.232" transform="translate(79.31 30.65)"/><path class="b" d="M0,8.06H1.089V0H0Z" transform="translate(83.727 28.294)"/><path class="b" d="M2.5,8.229a2.42,2.42,0,0,1-.992-.206,2.382,2.382,0,0,1-.8-.58,2.654,2.654,0,0,1-.526-.913A3.646,3.646,0,0,1,0,5.329,3.131,3.131,0,0,1,.278,3.957a2.892,2.892,0,0,1,.708-.942,2.811,2.811,0,0,1,.932-.538,3,3,0,0,1,.95-.169,2.479,2.479,0,0,1,.944.145c.208.09.388.165.52.218V0H5.421V7.486c0,.184,0,.377.012.574H4.368l-.037-.713c-.041.049-.11.126-.2.224a1.83,1.83,0,0,1-.369.3,2.683,2.683,0,0,1-.538.253A2.168,2.168,0,0,1,2.5,8.229Zm.448-4.966a1.824,1.824,0,0,0-.732.145,1.746,1.746,0,0,0-.581.411,1.882,1.882,0,0,0-.387.653,2.566,2.566,0,0,0-.139.87,2.87,2.87,0,0,0,.1.755,1.827,1.827,0,0,0,.3.622,1.394,1.394,0,0,0,.508.417,1.657,1.657,0,0,0,.732.151,1.566,1.566,0,0,0,.726-.157,1.5,1.5,0,0,0,.49-.393,1.628,1.628,0,0,0,.279-.52,1.74,1.74,0,0,0,.09-.525V3.686a2.784,2.784,0,0,0-.448-.26A2.142,2.142,0,0,0,2.952,3.263Z" transform="translate(86.071 28.294)"/><path class="b" d="M2.976,5.969a3,3,0,0,1-1.2-.236,2.853,2.853,0,0,1-.938-.647,3.061,3.061,0,0,1-.617-.948A2.986,2.986,0,0,1,0,2.985,2.985,2.985,0,0,1,.224,1.831,3.069,3.069,0,0,1,.841.882,2.859,2.859,0,0,1,1.779.236,3,3,0,0,1,2.976,0,2.963,2.963,0,0,1,4.162.236a2.935,2.935,0,0,1,.944.646,3.024,3.024,0,0,1,.623.949,2.988,2.988,0,0,1,.224,1.154,2.981,2.981,0,0,1-.847,2.1,2.928,2.928,0,0,1-.944.647A2.972,2.972,0,0,1,2.976,5.969Zm0-5.027a1.744,1.744,0,0,0-.786.176,1.866,1.866,0,0,0-.593.459,2.011,2.011,0,0,0-.369.653,2.319,2.319,0,0,0-.127.755,2.269,2.269,0,0,0,.127.749,2.035,2.035,0,0,0,.375.653,1.913,1.913,0,0,0,.593.465,1.706,1.706,0,0,0,.78.175,1.744,1.744,0,0,0,.786-.175,1.87,1.87,0,0,0,.593-.459,2.025,2.025,0,0,0,.369-.653,2.319,2.319,0,0,0,.127-.755,2.284,2.284,0,0,0-.127-.743,2.034,2.034,0,0,0-.375-.659,1.925,1.925,0,0,0-.593-.465A1.705,1.705,0,0,0,2.976.942Z" transform="translate(94.928 30.553)"/><path class="b" d="M1.016,3.553H0V2.646H1.016V2.187A2.69,2.69,0,0,1,1.18,1.2,1.913,1.913,0,0,1,1.615.52,1.72,1.72,0,0,1,2.239.127,2.158,2.158,0,0,1,2.977,0a2.837,2.837,0,0,1,.877.139,2.113,2.113,0,0,1,.792.477l-.545.7A1.464,1.464,0,0,0,3.146.943a.988.988,0,0,0-.756.3,1.5,1.5,0,0,0-.284,1.039v.363H3.715v.907H2.105V8.265H1.016V3.553" transform="translate(101.399 28.088)"/><path class="b" d="M2.94,5.957a3.213,3.213,0,0,1-1.2-.218,2.662,2.662,0,0,1-.932-.617,2.766,2.766,0,0,1-.6-.954A3.451,3.451,0,0,1,0,2.936,3.212,3.212,0,0,1,.206,1.782,2.766,2.766,0,0,1,.787.852,2.8,2.8,0,0,1,1.676.23,2.753,2.753,0,0,1,2.807,0,2.62,2.62,0,0,1,4.054.278a2.491,2.491,0,0,1,.853.737A3.174,3.174,0,0,1,5.4,2.066,4.813,4.813,0,0,1,5.554,3.3H1.113a1.7,1.7,0,0,0,.163.688,1.752,1.752,0,0,0,.405.544,1.965,1.965,0,0,0,.581.363,1.828,1.828,0,0,0,.69.133,2.53,2.53,0,0,0,1.174-.241,2.416,2.416,0,0,0,.666-.472l.617.653a3.415,3.415,0,0,1-.29.278,2.475,2.475,0,0,1-.5.326,3.9,3.9,0,0,1-.726.272A3.605,3.605,0,0,1,2.94,5.957ZM2.807.918a1.749,1.749,0,0,0-.7.133,1.673,1.673,0,0,0-.527.35,1.58,1.58,0,0,0-.339.5,1.657,1.657,0,0,0-.133.586H4.429a1.829,1.829,0,0,0-.46-1.112A1.485,1.485,0,0,0,2.807.918Z" transform="translate(107.896 30.565)"/><path class="b" d="M2.5,8.229a2.42,2.42,0,0,1-.992-.206,2.382,2.382,0,0,1-.8-.58,2.651,2.651,0,0,1-.526-.913A3.646,3.646,0,0,1,0,5.329,3.131,3.131,0,0,1,.278,3.957a2.89,2.89,0,0,1,.708-.942,2.809,2.809,0,0,1,.932-.538,3,3,0,0,1,.95-.169,2.48,2.48,0,0,1,.944.145c.208.09.388.165.52.218V0H5.421V7.486c0,.181,0,.374.012.574H4.368l-.037-.713c-.043.051-.11.127-.2.224a1.834,1.834,0,0,1-.369.3,2.683,2.683,0,0,1-.538.253A2.168,2.168,0,0,1,2.5,8.229Zm.448-4.966a1.822,1.822,0,0,0-.732.145,1.745,1.745,0,0,0-.581.411,1.88,1.88,0,0,0-.387.653,2.566,2.566,0,0,0-.139.87,2.881,2.881,0,0,0,.1.755,1.834,1.834,0,0,0,.3.622,1.4,1.4,0,0,0,.508.417,1.658,1.658,0,0,0,.732.151,1.566,1.566,0,0,0,.726-.157,1.5,1.5,0,0,0,.49-.393,1.628,1.628,0,0,0,.279-.52,1.736,1.736,0,0,0,.091-.525V3.686a2.79,2.79,0,0,0-.448-.26A2.145,2.145,0,0,0,2.952,3.263Z" transform="translate(114.39 28.294)"/><path class="b" d="M0,0H1.089V3.3a1.679,1.679,0,0,0,.326,1.154,1.216,1.216,0,0,0,.944.356,1.447,1.447,0,0,0,.78-.193,1.569,1.569,0,0,0,.5-.5,2.067,2.067,0,0,0,.272-.7,4.081,4.081,0,0,0,.079-.8V0H5.082V5.045c0,.181,0,.372.012.574H4.053l-.036-.834a3.983,3.983,0,0,1-.266.314,1.791,1.791,0,0,1-.387.308,2.521,2.521,0,0,1-.532.235,2.267,2.267,0,0,1-.69.1A1.975,1.975,0,0,1,.52,5.106,2.654,2.654,0,0,1,0,3.371V0" transform="translate(121.296 30.734)"/><path class="b" d="M5.155,5.027a2.838,2.838,0,0,1-.926.683,2.965,2.965,0,0,1-1.277.26,3.238,3.238,0,0,1-1.228-.224A2.615,2.615,0,0,1,.206,4.187,3.4,3.4,0,0,1,0,2.985a3.087,3.087,0,0,1,.218-1.16A2.88,2.88,0,0,1,.829.876,2.9,2.9,0,0,1,2.952,0,2.946,2.946,0,0,1,4.211.254a2.839,2.839,0,0,1,.932.688l-.714.689a1.843,1.843,0,0,0-.617-.5A1.9,1.9,0,0,0,2.952.954a1.805,1.805,0,0,0-.78.164,1.678,1.678,0,0,0-.581.447,2.062,2.062,0,0,0-.363.653,2.34,2.34,0,0,0-.127.767,2.3,2.3,0,0,0,.127.755,2.062,2.062,0,0,0,.363.653,1.723,1.723,0,0,0,1.361.622,2.046,2.046,0,0,0,.889-.187,1.829,1.829,0,0,0,.647-.5l.666.7" transform="translate(127.619 30.553)"/><path class="b" d="M1.96,5.945a2.727,2.727,0,0,1-.7-.091,1.826,1.826,0,0,1-.629-.3,1.594,1.594,0,0,1-.46-.544A1.735,1.735,0,0,1,0,4.193a2.022,2.022,0,0,1,.159-.816,1.765,1.765,0,0,1,.477-.634,2.1,2.1,0,0,1,.776-.408A3.746,3.746,0,0,1,2.468,2.2c.131,0,.269,0,.411.012l.412.024c.129.008.242.016.339.024s.166.016.206.024V2.078a1.034,1.034,0,0,0-.381-.9A1.759,1.759,0,0,0,2.42.906,2.446,2.446,0,0,0,1.4,1.082a3.988,3.988,0,0,0-.629.357L.266.7A2.649,2.649,0,0,1,.617.459,3.049,3.049,0,0,1,1.1.236,3.961,3.961,0,0,1,1.73.066,4.427,4.427,0,0,1,2.541,0a3.33,3.33,0,0,1,.972.131,2.085,2.085,0,0,1,.74.394,1.663,1.663,0,0,1,.467.636,2.217,2.217,0,0,1,.156.856V5.286c0,.195,0,.364.012.5H3.872l-.024-.677a1.886,1.886,0,0,1-.829.629A2.849,2.849,0,0,1,1.96,5.945Zm.581-2.912a2.132,2.132,0,0,0-.744.109,1.268,1.268,0,0,0-.448.272.869.869,0,0,0-.224.362,1.31,1.31,0,0,0-.061.381.817.817,0,0,0,.315.695,1.431,1.431,0,0,0,.871.235,1.671,1.671,0,0,0,.6-.109,1.76,1.76,0,0,0,.5-.29A1.472,1.472,0,0,0,3.7,4.265a1.018,1.018,0,0,0,.133-.5V3.129c-.032-.008-.1-.018-.187-.03s-.2-.022-.321-.03L2.94,3.045C2.806,3.037,2.672,3.033,2.541,3.033Z" transform="translate(133.554 30.565)"/><path class="b" d="M1.017,2.743H0V1.836H1.017V0H2.105V1.836H3.751v.907H2.105V5.51a1.5,1.5,0,0,0,.212.931.737.737,0,0,0,.6.253,1.226,1.226,0,0,0,.52-.1,1.6,1.6,0,0,0,.411-.29l.5.665a2.306,2.306,0,0,1-.72.489,2.313,2.313,0,0,1-.877.151,1.644,1.644,0,0,1-1.313-.484,2.274,2.274,0,0,1-.417-1.51V2.743" transform="translate(139.299 28.898)"/><path class="b" d="M1.161,7.842H.072V2.223H1.161Zm.06-6.622H0V0H1.222V1.22Z" transform="translate(144.454 28.511)"/><path class="b" d="M2.976,5.969a3.01,3.01,0,0,1-1.2-.236,2.857,2.857,0,0,1-.937-.647,3.06,3.06,0,0,1-.617-.948A2.984,2.984,0,0,1,0,2.985,2.983,2.983,0,0,1,.224,1.831,3.069,3.069,0,0,1,.841.882,2.863,2.863,0,0,1,1.778.236,3,3,0,0,1,2.976,0,2.97,2.97,0,0,1,4.163.236a2.926,2.926,0,0,1,.943.646,3.017,3.017,0,0,1,0,4.2,2.92,2.92,0,0,1-.943.647A2.979,2.979,0,0,1,2.976,5.969Zm0-5.027a1.75,1.75,0,0,0-.787.176,1.879,1.879,0,0,0-.592.459,2.016,2.016,0,0,0-.369.653,2.319,2.319,0,0,0-.127.755,2.269,2.269,0,0,0,.127.749,2.04,2.04,0,0,0,.375.653,1.906,1.906,0,0,0,.594.465,1.7,1.7,0,0,0,.78.175,1.75,1.75,0,0,0,.787-.175,1.88,1.88,0,0,0,.592-.459,2,2,0,0,0,.37-.653,2.315,2.315,0,0,0,.126-.755,2.28,2.28,0,0,0-.126-.743,2.033,2.033,0,0,0-.376-.659,1.931,1.931,0,0,0-.592-.465A1.71,1.71,0,0,0,2.976.942Z" transform="translate(146.835 30.553)"/><path class="b" d="M.012,1.354V.707C.012.526.007.334,0,.133H1.039l.037.846c.073-.1.16-.2.266-.32A1.845,1.845,0,0,1,1.73.338,2.275,2.275,0,0,1,2.964,0,2,2,0,0,1,4.6.641,2.639,2.639,0,0,1,5.13,2.38V5.752H4.04V2.465A1.664,1.664,0,0,0,3.7,1.311,1.233,1.233,0,0,0,2.746.943a1.478,1.478,0,0,0-.786.193,1.484,1.484,0,0,0-.5.5,2.226,2.226,0,0,0-.273.7,3.808,3.808,0,0,0-.085.8v2.61H.012v-4.4" transform="translate(153.985 30.601)"/></svg>