<svg xmlns="http://www.w3.org/2000/svg" width="14" height="14" viewBox="0 0 14 14"><defs><style>.a{fill:none;}.b{fill:#fff;}</style></defs><rect class="a" width="14" height="14"/><g transform="translate(2.333 2.333)"><path class="b" d="M7.292,9.333H.875A.876.876,0,0,1,0,8.458V2.042a.876.876,0,0,1,.875-.875H3.792a.292.292,0,0,1,.292.292v.583a.292.292,0,0,1-.292.291H1.167V8.167H7V6.125a.292.292,0,0,1,.292-.292h.583a.292.292,0,0,1,.292.292V8.458A.876.876,0,0,1,7.292,9.333ZM3.184,7a.434.434,0,0,1-.31-.129L2.461,6.46a.438.438,0,0,1,0-.62L6.9,1.4,6.253.748A.431.431,0,0,1,6.159.27a.431.431,0,0,1,.4-.27H8.9a.438.438,0,0,1,.438.437V2.771a.436.436,0,0,1-.442.438.431.431,0,0,1-.306-.128l-.651-.65L3.494,6.872A.439.439,0,0,1,3.184,7Z"/></g></svg>