<svg xmlns="http://www.w3.org/2000/svg" width="25.043" height="25.043" viewBox="0 0 25.043 25.043"><defs><style>.a{fill:none;}.b{fill:#fff;}</style></defs><rect class="a" width="25.043" height="25.043"/><path class="b" d="M18.724,4.224c.013.185.013.371.013.556A12.086,12.086,0,0,1,6.568,16.95,12.087,12.087,0,0,1,0,15.03a8.848,8.848,0,0,0,1.033.053,8.566,8.566,0,0,0,5.31-1.827,4.285,4.285,0,0,1-4-2.966,5.394,5.394,0,0,0,.808.066,4.524,4.524,0,0,0,1.126-.146,4.278,4.278,0,0,1-3.43-4.2V5.959A4.308,4.308,0,0,0,2.781,6.5,4.284,4.284,0,0,1,1.457.781a12.158,12.158,0,0,0,8.819,4.476,4.828,4.828,0,0,1-.106-.98,4.281,4.281,0,0,1,7.4-2.927A8.421,8.421,0,0,0,20.287.318a4.266,4.266,0,0,1-1.88,2.357,8.575,8.575,0,0,0,2.463-.662A9.194,9.194,0,0,1,18.724,4.224Z" transform="translate(2.087 4.174)"/></svg>